<?xml version="1.0" encoding="utf-8"?>
<!-- Generator: Adobe Illustrator 21.1.0, SVG Export Plug-In . SVG Version: 6.00 Build 0)  -->
<svg version="1.1" id="Layer_1" xmlns="http://www.w3.org/2000/svg" xmlns:xlink="http://www.w3.org/1999/xlink" x="0px" y="0px"
	 viewBox="0 0 354.5 70" style="enable-background:new 0 0 354.5 70;" xml:space="preserve">
<style type="text/css">
	.st0{fill:#FFC10E;}
	.st1{fill:#FBBB80;}
	.st2{fill:#2DA34A;stroke:#2DA34A;stroke-miterlimit:10;}
	.st3{fill:#0094D4;}
	.st4{fill:#EE4023;}
	.st5{fill:#231F20;}
	.st6{fill:#FFFFFF;}
	.st7{fill:#0D93D1;}
</style>
<polygon class="st0" points="23.1,14.2 31.6,15.7 32.2,15.2 30,14.2 32.8,13.5 29.7,12.8 33,11.5 29.6,11.4 32.1,9.6 28.9,10 
	31,7.9 28.3,8.8 29.6,6.5 27.3,7.7 28.1,5.2 26,6.8 26.3,4.1 24.8,6.2 24.5,3.8 23.3,6 22.6,3.5 21.9,5.8 20.7,3.8 20.4,6.2 
	18.6,4.3 19,6.9 17,5.2 17.7,7.8 15.5,6.4 16.9,8.8 14.3,7.9 16,9.9 13.3,9.7 15.3,11.4 12.7,11.4 15.3,12.8 12.1,13.5 14.9,14.1 
	12.5,15.4 15.4,15.8 16.5,14.7 18.2,14.8 20.6,14.2 "/>
<polygon class="st1" points="8.7,52.5 15.5,49.4 17.6,51 21.2,52.5 25.8,51.5 29.5,49.2 36.1,52.5 38.8,46.4 32.8,45.6 22,42.7 
	18.3,44.2 14.9,45 6.1,46.2 "/>
<g>
	<path class="st2" d="M35.7,58.2c-0.5-0.1-1.2-0.1-2.1,0.3c-0.1,0-0.2,0-0.3-0.1s-0.1-0.2-0.1-0.3c0,0,0.3-0.6,0.3-1.3l0,0l0,0
		c-0.2,0.2-0.5,0.4-0.7,0.6c-0.6,0.7-0.9,1.5-0.9,2.3l0,0c0.1,0,0.2,0,0.4,0s0.4,0,0.6-0.1C33.6,59.6,34.6,59.2,35.7,58.2L35.7,58.2
		L35.7,58.2"/>
	<path class="st2" d="M37.6,55.6c-0.5,0-1.2,0.2-2,0.7c-0.1,0.1-0.2,0.1-0.3,0s-0.1-0.2-0.1-0.3c0,0,0.1-0.7,0.1-1.4l0,0l0,0
		c-0.2,0.2-0.4,0.5-0.5,0.7c-0.5,0.8-0.7,1.6-0.7,2.3l0,0h0.1c0.2,0,0.6,0,1-0.2c0.4-0.1,0.9-0.4,1.3-0.7
		C36.9,56.5,37.3,56.1,37.6,55.6L37.6,55.6L37.6,55.6"/>
	<path class="st2" d="M39.2,52.9c-0.5,0.1-1.2,0.3-1.9,0.9c-0.1,0.1-0.2,0.1-0.3,0c-0.1,0-0.1-0.1-0.1-0.3c0,0,0.1-0.7-0.1-1.4l0,0
		l0,0c-0.2,0.2-0.3,0.5-0.5,0.8c-0.4,0.8-0.6,1.6-0.4,2.4l0,0l0,0c0.2,0,0.6-0.1,1.1-0.3c0.4-0.2,0.8-0.5,1.2-0.8
		C38.6,53.9,38.9,53.4,39.2,52.9L39.2,52.9L39.2,52.9"/>
	<path class="st2" d="M40.5,50c-0.1,0-0.2,0-0.3,0.1c-0.4,0.1-1,0.4-1.5,1c-0.1,0.1-0.2,0.1-0.3,0.1s-0.2-0.1-0.2-0.2
		c0,0,0-0.7-0.2-1.3l0,0l0,0c-0.1,0.3-0.3,0.5-0.4,0.8c-0.3,0.9-0.4,1.7-0.1,2.5l0,0l0,0c0.2,0,0.6-0.1,1.1-0.4
		c0.4-0.2,0.8-0.6,1.1-1C40,51,40.3,50.5,40.5,50L40.5,50L40.5,50"/>
	<path class="st2" d="M41.4,47c-0.4,0.2-1.1,0.5-1.7,1.3c-0.1,0.1-0.2,0.1-0.3,0.1s-0.2-0.1-0.2-0.2c0,0-0.1-0.7-0.4-1.4l0,0l0,0
		l0,0c-0.1,0.3-0.2,0.6-0.3,0.9c-0.2,0.6-0.3,1.6,0.1,2.5l0,0l0,0c0.2,0,0.6-0.2,1-0.5s0.7-0.6,1-1.1C41,48.1,41.3,47.6,41.4,47
		C41.5,47,41.5,47,41.4,47L41.4,47"/>
	<path class="st2" d="M11.4,56.8L11.4,56.8L11.4,56.8c0,0.7,0.3,1.3,0.3,1.3c0,0.1,0,0.2-0.1,0.3s-0.2,0.1-0.3,0.1
		c-0.9-0.3-1.6-0.3-2.1-0.3l0,0l0,0c0.9,0.8,1.8,1.3,2.7,1.5c0.2,0,0.4,0.1,0.6,0.1c0.2,0,0.3,0,0.4,0l0,0
		C13.1,58.3,12,57.3,11.4,56.8"/>
	<path class="st2" d="M42,43.9c-0.4,0.2-1,0.7-1.5,1.5c-0.1,0.1-0.2,0.1-0.3,0.1S40,45.4,40,45.3c0,0-0.2-0.8-0.5-1.4l0,0l0,0
		c-0.1,0.3-0.1,0.6-0.2,0.9c-0.1,1,0,1.8,0.4,2.5l0,0l0,0c0.2-0.1,0.6-0.3,0.9-0.6c0.3-0.3,0.6-0.7,0.9-1.2C41.8,45,42,44.5,42,43.9
		C42.1,43.9,42.1,43.9,42,43.9L42,43.9"/>
	<path class="st2" d="M41,42.4c0,0.1-0.1,0.2-0.2,0.1c-0.1,0-0.2-0.1-0.2-0.2c0,0-0.2-0.7-0.7-1.2l0,0l0,0c-0.1,0.3-0.1,0.6-0.1,0.9
		c0,0.9,0.2,1.7,0.7,2.4l0,0l0,0c0.1-0.1,0.5-0.3,0.9-0.7c0.3-0.4,0.5-0.8,0.7-1.3s0.3-1,0.3-1.6l0,0l0,0C41.9,41,41.4,41.6,41,42.4
		"/>
	<path class="st2" d="M40.9,39.6c-0.1,0-0.2-0.1-0.2-0.1s-0.3-0.6-0.8-1.1l0,0l0,0c0,0.8,0.1,2.2,0.9,3.1l0,0l0,0
		c0.1-0.1,0.5-0.3,0.8-0.8c0.3-0.4,0.5-0.8,0.6-1.3s0.2-1.1,0.2-1.7l0,0l0,0c-0.4,0.3-0.9,0.9-1.2,1.7C41.1,39.5,41,39.5,40.9,39.6"
		/>
	<path class="st2" d="M40.7,36.5c-0.1,0-0.2,0-0.3-0.1c0,0-0.4-0.6-0.8-1l0,0l0,0c0.1,0.8,0.3,2.3,1.2,3l0,0l0,0
		c0.1-0.1,0.4-0.4,0.7-0.9c0.2-0.4,0.4-0.9,0.5-1.4s0.1-1.1,0-1.7l0,0l0,0c-0.3,0.3-0.8,0.9-1,1.8C40.9,36.4,40.8,36.5,40.7,36.5"/>
	<path class="st2" d="M40.3,33.6c-0.1,0-0.2,0-0.3-0.1c0,0-0.4-0.6-0.9-1l0,0l0,0c0,0.3,0.1,0.6,0.2,0.9c0.2,0.6,0.5,1.5,1.2,2.1
		l0,0l0,0c0.1-0.1,0.4-0.4,0.7-0.9c0.2-0.4,0.3-0.9,0.4-1.4c0.1-0.5,0-1.1-0.1-1.7l0,0l0,0c-0.3,0.4-0.7,1-0.9,1.9
		C40.5,33.5,40.4,33.5,40.3,33.6"/>
	<path class="st2" d="M39.7,30.7c-0.1,0-0.2,0-0.3-0.1c0,0-0.5-0.5-1.1-0.9l0,0l0,0c0.1,0.3,0.2,0.6,0.3,0.8
		c0.3,0.9,0.8,1.5,1.5,1.9l0,0l0,0c0.1-0.1,0.4-0.5,0.5-1c0.1-0.4,0.2-0.9,0.2-1.4s-0.1-1.1-0.3-1.6l0,0l0,0c-0.3,0.4-0.6,1.1-0.6,2
		C39.8,30.5,39.8,30.6,39.7,30.7"/>
	<path class="st2" d="M38.4,27.8c0,0-0.5-0.5-1.1-0.8l0,0l0,0c0.1,0.3,0.2,0.6,0.3,0.8c0.4,0.8,1,1.4,1.7,1.8l0,0l0,0
		c0.1-0.1,0.3-0.5,0.4-1c0.1-0.5,0.1-0.9,0-1.5c-0.1-0.5-0.2-1-0.5-1.6l0,0l0,0c-0.2,0.4-0.5,1.1-0.4,2c0,0.1-0.1,0.2-0.1,0.2
		C38.6,27.8,38.4,27.8,38.4,27.8"/>
	<path class="st2" d="M35.8,24.5L35.8,24.5c0.1,0.3,0.3,0.6,0.4,0.8c0.5,0.8,1.2,1.3,1.9,1.6l0,0l0,0c0.1-0.1,0.2-0.5,0.3-1.1
		c0-0.5,0-1-0.1-1.5s-0.4-1-0.7-1.5l0,0l0,0c-0.2,0.4-0.3,1.2-0.2,2.1c0,0.1,0,0.2-0.1,0.3c-0.1,0.1-0.2,0-0.3,0
		C37.1,25.1,36.5,24.6,35.8,24.5L35.8,24.5"/>
	<path class="st2" d="M34.1,22.2L34.1,22.2c0.2,0.3,0.4,0.5,0.6,0.8c0.6,0.7,1.4,1.1,2.1,1.3l0,0l0,0c0.1-0.2,0.2-0.6,0.1-1.1
		c0-0.5-0.2-0.9-0.4-1.4s-0.5-0.9-0.9-1.4l0,0l0,0c-0.1,0.5-0.1,1.2,0.1,2.1c0,0.1,0,0.2-0.1,0.3c-0.1,0.1-0.2,0.1-0.3,0
		C35.4,22.6,34.8,22.2,34.1,22.2L34.1,22.2"/>
	<path class="st2" d="M33.8,20.3c-0.1,0.1-0.2,0.1-0.3,0.1c0,0-0.6-0.2-1.3-0.2h-0.1l0,0l0,0c0.2,0.2,0.5,0.5,0.7,0.7
		c0.5,0.4,1.3,0.9,2.2,0.9l0,0l0,0c0-0.2,0.1-0.6-0.1-1.1c-0.1-0.5-0.3-0.9-0.6-1.3s-0.6-0.8-1.1-1.2l0,0l0,0c0,0.5,0.1,1.2,0.5,2
		C33.8,20.2,33.8,20.3,33.8,20.3"/>
	<path class="st2" d="M10.8,57.7h0.1l0,0c0.1-1.3-0.7-2.4-1.2-3l0,0l0,0C9.6,55.3,9.8,56,9.8,56c0,0.1,0,0.2-0.1,0.3s-0.2,0.1-0.3,0
		c-0.8-0.5-1.5-0.6-2-0.7l0,0l0,0c0.4,0.5,0.7,0.9,1.1,1.2c0.4,0.3,0.8,0.6,1.3,0.7C10.2,57.7,10.6,57.7,10.8,57.7"/>
	<path class="st2" d="M9.1,55.4L9.1,55.4C9.1,55.4,9.1,55.3,9.1,55.4c0.2-1-0.1-1.9-0.4-2.4c-0.1-0.3-0.3-0.5-0.5-0.8l0,0l0,0
		c-0.1,0.7-0.1,1.3-0.1,1.3c0,0.1,0,0.2-0.1,0.3s-0.2,0-0.3,0C7,53.2,6.3,53,5.8,52.9l0,0l0,0c0.3,0.5,0.6,1,1,1.3
		C7.2,54.6,7.6,54.8,8,55C8.5,55.3,8.9,55.3,9.1,55.4"/>
	<path class="st2" d="M7.5,52.9L7.5,52.9L7.5,52.9c0.3-0.8,0.2-1.6-0.1-2.5c-0.1-0.3-0.2-0.5-0.4-0.8l0,0l0,0
		c-0.2,0.6-0.2,1.3-0.2,1.4c0,0.1-0.1,0.2-0.2,0.2s-0.2,0-0.3-0.1c-0.6-0.6-1.1-0.9-1.5-1c-0.1,0-0.2-0.1-0.3-0.1l0,0l0,0
		c0.2,0.5,0.5,1,0.9,1.4c0.3,0.4,0.7,0.7,1.1,1C6.9,52.7,7.3,52.8,7.5,52.9"/>
	<path class="st2" d="M6.2,50.2L6.2,50.2L6.2,50.2c0.6-1.3,0.2-2.7-0.1-3.3l0,0l0,0l0,0c-0.3,0.6-0.4,1.3-0.4,1.3
		c0,0.1-0.1,0.2-0.2,0.2s-0.2,0-0.3-0.1c-0.5-0.6-1-1-1.4-1.2c-0.1,0-0.2-0.1-0.2-0.1l0,0l0,0C4.2,49.4,5.6,50,6.2,50.2"/>
	<path class="st2" d="M4.3,46.8c0.4,0.4,0.8,0.5,1,0.6l0,0l0,0c0.5-0.8,0.6-1.7,0.4-2.5c-0.1-0.3-0.2-0.6-0.3-0.8l0,0l0,0
		c-0.4,0.6-0.5,1.3-0.5,1.4l0,0l0,0c0,0.1-0.1,0.2-0.2,0.2s-0.2,0-0.3-0.1c-0.5-0.8-1.1-1.2-1.6-1.4l0,0l0,0
		c0.1,0.6,0.3,1.1,0.6,1.6C3.6,46.1,3.9,46.5,4.3,46.8"/>
	<path class="st2" d="M4.4,44.5L4.4,44.5L4.4,44.5c1-1.3,0.9-2.6,0.8-3.3l0,0l0,0c-0.5,0.5-0.7,1.2-0.7,1.2c0,0.1-0.1,0.2-0.2,0.2
		l0,0l0,0c-0.1,0-0.2-0.1-0.2-0.2c-0.3-0.7-0.8-1.2-1.1-1.5c-0.1-0.1-0.1-0.1-0.2-0.2l0,0l0,0C2.7,43.3,3.9,44.2,4.4,44.5"/>
	<path class="st2" d="M4.2,41.6L4.2,41.6L4.2,41.6c0.5-0.5,0.8-1,0.9-1.8c0.1-0.6,0.1-1.2,0-1.5l0,0l0,0c-0.5,0.5-0.7,1.1-0.7,1.2
		c0,0.1-0.1,0.2-0.2,0.2S4,39.6,3.9,39.5c-0.2-0.8-0.6-1.3-0.9-1.6c-0.1-0.1-0.1-0.1-0.2-0.2l0,0l0,0C2.6,40.1,3.7,41.2,4.2,41.6"/>
	<path class="st2" d="M3.5,37.6C3.7,38,4,38.3,4.2,38.4l0,0l0,0c0.6-0.5,0.9-1.3,1.1-2.2c0-0.3,0.1-0.6,0.1-0.9l0,0l0,0
		c-0.5,0.5-0.8,1.1-0.8,1.1c0,0.1-0.2,0.2-0.3,0.1c-0.1,0-0.2-0.1-0.2-0.2c-0.2-0.9-0.7-1.5-1-1.8l0,0l0,0c-0.1,0.6-0.1,1.2,0,1.7
		C3.1,36.7,3.2,37.1,3.5,37.6"/>
	<path class="st2" d="M3.8,34.5C4,35,4.3,35.3,4.4,35.4l0,0l0,0c0.6-0.6,1.1-1.3,1.3-2.2c0.1-0.3,0.1-0.5,0.1-0.8l0,0l0,0
		c-0.5,0.4-0.9,1-1,1c-0.1,0.1-0.2,0.1-0.3,0.1c-0.1,0-0.2-0.1-0.2-0.2c-0.2-0.9-0.6-1.5-0.9-1.9l0,0l0,0c-0.1,0.6-0.1,1.1-0.1,1.7
		C3.4,33.6,3.6,34.1,3.8,34.5"/>
	<path class="st2" d="M4.8,32.5L4.8,32.5C4.9,32.5,4.9,32.5,4.8,32.5c0.8-0.5,1.3-1.2,1.6-2c0.1-0.3,0.1-0.5,0.2-0.8l0,0l0,0
		C6,30,5.5,30.5,5.5,30.5c-0.1,0.1-0.2,0.1-0.3,0.1c-0.1,0-0.2-0.1-0.2-0.2c-0.1-0.9-0.4-1.6-0.7-2l0,0l0,0C4.1,29,4,29.5,4,30
		s0.1,1,0.2,1.4C4.5,32,4.7,32.4,4.8,32.5"/>
	<path class="st2" d="M5.6,29.6L5.6,29.6L5.6,29.6c0.9-0.4,1.5-1,1.9-1.8c0.1-0.2,0.2-0.5,0.3-0.8l0,0l0,0c-0.6,0.3-1.2,0.7-1.2,0.8
		c-0.1,0.1-0.2,0.1-0.3,0c-0.1,0-0.2-0.1-0.1-0.2c0-0.9-0.2-1.6-0.4-2l0,0l0,0l0,0c-0.2,0.5-0.4,1.1-0.5,1.6s-0.1,1,0,1.5
		C5.3,29.1,5.5,29.4,5.6,29.6"/>
	<path class="st2" d="M6.7,26.8C6.7,26.9,6.7,26.9,6.7,26.8C6.7,26.9,6.7,26.9,6.7,26.8c0.8-0.2,1.4-0.7,2-1.5
		c0.2-0.3,0.4-0.6,0.5-0.8l0,0l0,0c-0.7,0.1-1.3,0.6-1.3,0.6c-0.1,0.1-0.2,0.1-0.3,0c-0.1-0.1-0.2-0.2-0.1-0.3
		c0.2-0.9,0-1.6-0.1-2.1l0,0l0,0c-0.3,0.5-0.6,1-0.7,1.5c-0.2,0.5-0.2,1-0.2,1.4C6.5,26.3,6.6,26.7,6.7,26.8"/>
	<path class="st2" d="M8.2,24.2L8.2,24.2c1.3-0.2,2.2-1.3,2.7-2l0,0l0,0c-0.7,0.1-1.3,0.4-1.3,0.4c-0.1,0.1-0.2,0.1-0.3,0
		s-0.1-0.2-0.1-0.3c0.3-0.9,0.2-1.6,0.2-2.1l0,0l0,0C7.7,22.1,8,23.6,8.2,24.2L8.2,24.2"/>
	<path class="st2" d="M10,21.8L10,21.8c0.8,0,1.6-0.5,2.1-0.9c0.3-0.2,0.5-0.4,0.8-0.7l0,0l0,0c-0.7,0-1.3,0.2-1.3,0.2
		c-0.1,0-0.2,0-0.3-0.1s-0.1-0.2,0-0.3c0.4-0.8,0.5-1.6,0.5-2l0,0l0,0c-0.5,0.4-0.8,0.8-1.1,1.3c-0.3,0.4-0.5,0.9-0.6,1.3
		C9.9,21.2,9.9,21.6,10,21.8C9.9,21.8,10,21.8,10,21.8"/>
	<path class="st2" d="M15.2,18.4c-0.7-0.1-1.3,0.1-1.3,0.1c-0.1,0-0.2,0-0.3-0.1s-0.1-0.2,0-0.3c0.5-0.8,0.6-1.5,0.7-2l0,0l0,0
		c-2,1.4-2.1,2.9-2.1,3.5l0,0h0.1C13.5,19.7,14.6,18.9,15.2,18.4C15.2,18.5,15.2,18.5,15.2,18.4L15.2,18.4"/>
	<path class="st2" d="M17.7,17.2c-0.2-0.1-0.4-0.1-0.7-0.1c-0.4,0-0.7,0-0.7,0l0,0c-0.1,0-0.2-0.1-0.2-0.2s0-0.2,0.1-0.3
		c0.7-0.6,1-1.1,1.2-1.5l0,0l0,0c-2.3,0.8-2.8,2.1-2.9,2.7l0,0c0.2,0.1,0.5,0.1,0.9,0.1s1-0.1,1.6-0.3
		C17.2,17.5,17.5,17.4,17.7,17.2L17.7,17.2L17.7,17.2"/>
	<path class="st2" d="M20.5,16.5c-0.6-0.3-1.3-0.4-1.3-0.4c-0.1,0-0.2-0.1-0.2-0.2c0-0.1,0-0.2,0.1-0.3c0.8-0.4,1.1-0.8,1.3-1l0,0
		l0,0c-1.2,0.2-2.1,0.6-2.7,1.2c-0.3,0.3-0.5,0.6-0.5,0.8l0,0c0.5,0.2,1.1,0.3,1.6,0.3c0.3,0,0.6,0,0.9-0.1
		C19.9,16.7,20.2,16.6,20.5,16.5L20.5,16.5L20.5,16.5"/>
	<path class="st2" d="M22.3,15.7c-0.1,0-0.2-0.1-0.2-0.3c0-0.1,0.1-0.2,0.2-0.2c0.8-0.2,1.2-0.5,1.5-0.7l0,0l0,0
		c-1.2-0.1-2.2,0.1-2.9,0.6c-0.4,0.2-0.6,0.5-0.7,0.7l0,0c0.8,0.6,1.8,0.7,2.6,0.7c0.2,0,0.5,0,0.6,0l0,0l0,0
		C23,15.9,22.3,15.7,22.3,15.7"/>
	<path class="st2" d="M25.3,15.9c-0.1-0.1-0.1-0.2-0.1-0.3s0.1-0.2,0.2-0.2c0.8-0.1,1.3-0.3,1.6-0.4l0,0l0,0c-1.1-0.3-2.1-0.3-2.9,0
		c-0.4,0.2-0.7,0.4-0.8,0.5l0,0c1,1.2,2.3,1.4,3,1.4l0,0l0,0l0,0C25.9,16.3,25.4,15.9,25.3,15.9"/>
	<path class="st2" d="M32.9,19.7L32.9,19.7c0-0.3,0-0.8-0.2-1.3c-0.3-0.9-1.1-1.5-2.1-1.9l0,0l0,0c0.1,0.4,0.4,1,0.8,1.6
		c0.1,0.1,0.1,0.2,0,0.3c-0.1,0.1-0.2,0.1-0.3,0.1c0,0-0.6-0.2-1.3,0l0,0l0,0C30.5,18.9,31.7,19.7,32.9,19.7
		C32.8,19.7,32.9,19.7,32.9,19.7"/>
	<path class="st2" d="M30.5,17.8L30.5,17.8c-0.6-0.6-1.3-0.9-2.2-0.9c-0.3,0-0.6,0.1-0.9,0.2l0,0l0,0c0.7,0.5,1.4,0.8,2.2,0.8h0.1
		C30,18,30.3,17.9,30.5,17.8L30.5,17.8"/>
	<path class="st2" d="M26.2,15.9L26.2,15.9c0.5,0.3,1,0.5,1.6,0.5c0.3,0,0.5,0,0.8-0.1c0.5-0.1,0.9-0.2,1.2-0.3l0,0l0,0
		c-0.4-0.2-0.9-0.4-1.3-0.5c-0.5-0.1-0.9-0.1-1.4,0C26.8,15.6,26.5,15.8,26.2,15.9L26.2,15.9"/>
</g>
<path class="st3" d="M39.6,39.2c0-3.1-0.5-6-1.4-8.8c-0.9-2.7-2.1-5.1-3.7-7.2c-1.6-2.1-3.4-3.7-5.4-4.8c-2.1-1.2-4.3-1.8-6.6-1.8
	s-4.5,0.6-6.6,1.8c-2,1.1-3.9,2.8-5.4,4.8c-1.6,2.1-2.8,4.5-3.7,7.2c-0.9,2.8-1.4,5.8-1.4,8.8H39.6z"/>
<polygon class="st4" points="22.5,33.7 26.5,33.7 28.1,32.2 26.2,24.4 24.3,22.3 22,21.9 19.2,23.2 18.2,25.1 19.1,26.5 17.4,29.7 
	16.9,32.8 17.8,33.6 "/>
<path class="st5" d="M21.4,14.2L21.4,14.2L21.4,14.2z"/>
<path class="st5" d="M18,14.7L18,14.7z"/>
<path class="st5" d="M18,14.7L18,14.7L18,14.7z"/>
<path class="st6" d="M26.9,66.6c-1.6-0.3-2.8-1.2-3.3-1.7c-0.1,0.1-0.1,0.1-0.2,0.2c0.1,0.5,0.6,1.6,2.6,2.1
	C26.4,67,26.7,66.8,26.9,66.6"/>
<path class="st6" d="M21.4,64.9c-0.5,0.5-1.7,1.4-3.3,1.7c0.2,0.2,0.5,0.4,0.9,0.6c2-0.5,2.5-1.7,2.6-2.1
	C21.5,65,21.4,64.9,21.4,64.9"/>
<path class="st5" d="M42.7,43.5c0-0.1,0-0.2-0.1-0.3s-0.2-0.1-0.2-0.1c0.1-0.1,0.1-0.3,0.2-0.5c0.3-0.7,0.4-1.5,0.4-2.4
	c0-0.1-0.1-0.2-0.2-0.3c-0.1,0-0.2-0.1-0.2-0.1c0.1-0.1,0.1-0.3,0.1-0.4c0.2-0.7,0.2-1.5,0.2-2.4c0-0.1-0.1-0.2-0.2-0.3
	c-0.1,0-0.2-0.1-0.2,0c0-0.2,0.1-0.3,0.1-0.5c0.1-0.7,0.1-1.5-0.1-2.4c0-0.1-0.1-0.2-0.2-0.3c-0.1,0-0.1,0-0.2,0
	c0-0.1,0-0.2,0.1-0.4c0.1-0.7,0-1.5-0.2-2.4c0-0.1-0.1-0.2-0.2-0.2c-0.1,0-0.2,0-0.3,0l0,0c0-0.2,0-0.4,0-0.6c0-0.7-0.2-1.5-0.5-2.3
	c0-0.1-0.1-0.2-0.3-0.2c-0.1,0-0.2,0-0.3,0.1c0-0.2,0-0.4,0-0.5c-0.1-0.7-0.4-1.5-0.8-2.3c-0.1-0.1-0.2-0.2-0.3-0.2s-0.2,0-0.3,0.1
	c0-0.2-0.1-0.3-0.1-0.5c-0.2-0.7-0.5-1.4-1-2.2c-0.1-0.1-0.2-0.2-0.3-0.2s-0.2,0.1-0.3,0.2c-0.1-0.2-0.1-0.4-0.2-0.6
	c-0.3-0.7-0.8-1.3-1.4-2c-0.1-0.1-0.2-0.1-0.3-0.1s-0.2,0.1-0.2,0.1c-0.1-0.2-0.2-0.4-0.3-0.6c-0.4-0.6-0.9-1.2-1.6-1.7
	c-0.1-0.1-0.2-0.1-0.3-0.1s-0.2,0.1-0.2,0.2c-0.5-0.6-1.1-1.1-1.9-1.3c0.1,0,0.3,0,0.4,0c1,0.1,1.6-0.1,1.7-0.2
	c0.2-0.1,0.3-0.3,0.3-0.5s-0.2-0.4-0.4-0.4c-1.1-0.1-1.4-0.3-1.9-0.5c-0.1-0.1-0.2-0.1-0.3-0.2l2.5-0.4c0.2,0,0.4-0.2,0.4-0.4
	s-0.2-0.4-0.4-0.4l-2.4-0.4c0.3-0.1,0.6-0.2,1-0.3c0.9-0.3,1.5-0.8,1.5-0.8c0.2-0.1,0.2-0.4,0.1-0.6c-0.1-0.2-0.3-0.3-0.5-0.2
	c-1,0.4-1.4,0.3-2,0.2c-0.1,0-0.2,0-0.3,0l2.1-1.3c0.2-0.1,0.3-0.3,0.2-0.5C32.6,9.1,32.4,9,32.1,9l-2.4,0.6C30,9.5,30.2,9.3,30.5,9
	c0.7-0.6,1.1-1.3,1.1-1.3c0.1-0.2,0.1-0.4-0.1-0.6c-0.2-0.1-0.4-0.1-0.6,0c-0.8,0.7-1.2,0.8-1.8,1c-0.1,0-0.2,0.1-0.3,0.1l1.5-2
	c0.1-0.2,0.1-0.4,0-0.6c-0.2-0.2-0.4-0.2-0.6,0l-2,1.5c0.1-0.3,0.3-0.6,0.5-0.9c0.4-0.9,0.5-1.6,0.5-1.6c0-0.2-0.1-0.4-0.3-0.5
	c-0.2-0.1-0.4,0-0.5,0.2c-0.4,1-0.8,1.2-1.2,1.6C26.6,6,26.5,6,26.5,6.1l0.6-2.4c0.1-0.2-0.1-0.4-0.3-0.5c-0.2-0.1-0.4,0-0.5,0.2
	L25,5.5c0-0.3,0.1-0.6,0.1-1C25,3.7,24.8,3,24.8,3c-0.1-0.2-0.3-0.3-0.5-0.3s-0.4,0.2-0.4,0.4c0,1.1-0.3,1.4-0.5,1.9
	c0,0.1-0.1,0.2-0.1,0.3l-0.4-2.4c0-0.2-0.2-0.4-0.4-0.4l0,0c-0.2,0-0.4,0.2-0.4,0.4l-0.3,2.4c-0.1-0.3-0.2-0.6-0.3-0.9
	c-0.3-0.9-0.8-1.5-0.8-1.5c-0.1-0.2-0.4-0.2-0.6-0.1c-0.2,0.1-0.3,0.3-0.2,0.5c0.4,1,0.3,1.4,0.2,2c0,0.1,0,0.2,0,0.3l-1.3-2.1
	c-0.1-0.2-0.3-0.3-0.5-0.2S18,3.6,18,3.8l0.6,2.4C18.4,6,18.2,5.7,18,5.5c-0.6-0.7-1.3-1.1-1.3-1.1c-0.2-0.1-0.4-0.1-0.6,0.1
	c-0.1,0.2-0.1,0.4,0,0.6c0.7,0.8,0.8,1.2,1,1.8c0,0.1,0.1,0.2,0.1,0.3l-2-1.5c-0.2-0.1-0.4-0.1-0.6,0c-0.2,0.2-0.2,0.4,0,0.6l1.5,2
	c-0.3-0.1-0.6-0.3-0.9-0.5c-0.9-0.4-1.6-0.5-1.6-0.5c-0.2,0-0.4,0.1-0.5,0.3c-0.1,0.2,0,0.4,0.2,0.5c1,0.4,1.2,0.8,1.6,1.2
	C15,9.4,15,9.5,15.1,9.6L12.8,9c-0.2-0.1-0.4,0.1-0.5,0.3s0,0.4,0.2,0.5l2.1,1.3c-0.3,0-0.6-0.1-1-0.1c-1-0.1-1.6,0.1-1.7,0.2
	c-0.2,0.1-0.3,0.3-0.3,0.5s0.2,0.4,0.4,0.4c1.1,0,1.4,0.3,1.9,0.5c0.1,0,0.2,0.1,0.3,0.2l-2.5,0.4c-0.2,0-0.4,0.2-0.4,0.4
	s0.2,0.4,0.4,0.4l2.5,0.4c-0.3,0.1-0.6,0.2-1,0.3c-0.9,0.3-1.5,0.8-1.5,0.8c-0.2,0.1-0.2,0.4-0.1,0.6c0.1,0.2,0.3,0.3,0.5,0.2
	c0.6-0.2,1-0.3,1.3-0.3c-0.5,0.5-0.9,0.8-1.1,1.1c-0.1,0.1-0.2,0.3-0.3,0.4c0-0.1-0.1-0.1-0.2-0.1c-0.1,0-0.2,0-0.3,0.1
	c-0.7,0.5-1.3,1.1-1.7,1.7c-0.1,0.2-0.2,0.4-0.3,0.6c-0.1-0.1-0.1-0.1-0.2-0.2c-0.1,0-0.2,0-0.3,0.1c-0.6,0.6-1.1,1.3-1.4,2
	c-0.1,0.2-0.1,0.4-0.2,0.5c-0.1-0.1-0.1-0.1-0.2-0.1s-0.2,0-0.3,0.1c-0.5,0.7-0.9,1.4-1.1,2.1c-0.1,0.2-0.1,0.4-0.1,0.6
	c-0.1-0.1-0.2-0.1-0.3-0.1c-0.1,0-0.2,0.1-0.3,0.2c-0.4,0.8-0.7,1.5-0.8,2.3c0,0.2,0,0.4,0,0.5c-0.1-0.1-0.2-0.1-0.3-0.1
	c-0.1,0-0.2,0.1-0.2,0.2c-0.3,0.8-0.5,1.6-0.5,2.3c0,0.2,0,0.4,0,0.5c-0.1-0.1-0.2-0.1-0.3,0c-0.1,0-0.2,0.1-0.2,0.2
	c-0.2,0.9-0.3,1.7-0.2,2.4c0,0.1,0,0.3,0.1,0.4c-0.1,0-0.1,0-0.2,0c-0.1,0-0.2,0.1-0.2,0.3c-0.2,0.9-0.2,1.7-0.1,2.4
	c0,0.2,0.1,0.4,0.1,0.5H2.2C2.1,37,2,37.1,2,37.2c-0.1,0.9-0.1,1.7,0.1,2.4c0,0.2,0.1,0.3,0.1,0.5c-0.1,0-0.2,0-0.2,0.1
	c0.1-0.1,0,0,0,0.1c0,0.9,0.1,1.7,0.3,2.4c0.1,0.2,0.1,0.4,0.2,0.6l0,0c-0.1,0-0.2,0-0.3,0.1s-0.1,0.2-0.1,0.3
	c0.1,0.9,0.4,1.6,0.7,2.3C2.9,46,3,46.2,3,46.3c-0.1,0-0.1,0-0.2,0.1c-0.1,0.1-0.1,0.2-0.1,0.3c0.2,0.9,0.5,1.6,0.9,2.2
	c0.1,0.1,0.2,0.3,0.3,0.4c-0.1,0-0.2,0.1-0.2,0.1c-0.1,0.1-0.1,0.2,0,0.3c0.3,0.8,0.7,1.5,1.2,2.1C5,52,5.1,52.1,5.2,52.3
	c-0.1,0-0.2,0.1-0.2,0.2c-0.1,0.1-0.1,0.2,0,0.3c0.4,0.8,0.9,1.4,1.4,2c0.1,0.1,0.2,0.2,0.3,0.3c-0.1,0-0.1,0.1-0.2,0.2
	c0,0.1,0,0.2,0,0.3c0.5,0.7,1,1.3,1.6,1.8c0.2,0.1,0.4,0.3,0.5,0.4H8.5c-0.1,0-0.2,0.1-0.2,0.2c0,0.1,0,0.2,0.1,0.3
	c0.6,0.6,1.2,1.1,1.9,1.5c0.5,0.3,1,0.5,1.5,0.6c0.4,0.1,0.9,0.1,1.2,0c0,0,0,0,0.1,0c1.1,0.8,2.2,1.4,3.4,1.9c1,0.4,2,0.7,3,1
	c0.2,0,0.4,0.1,0.6,0.1c-0.4-0.2-0.2-0.4-0.5-0.7c-0.1-0.1-0.7-0.2-0.8-0.2c-0.7-0.2-1.4-0.4-2.1-0.7c-1.1-0.5-2.2-1.1-3.3-1.8l0,0
	c0-0.4,0-0.7-0.1-1.1c0.7,0.6,1.4,1.1,2.1,1.5c1,0.6,2,1,3.1,1.3c0-0.1,0.4-0.1,0.4-0.2c0-0.2-0.3-0.4-0.2-0.5
	c-1-0.3-1.9-0.7-2.9-1.2c-2-1.1-3.8-2.7-5.3-4.7c-0.5-0.7-1-1.5-1.5-2.2c1.2-0.5,3.8-1.7,6.1-2.9c0,0.1,0,0.2,0.1,0.3
	c0.2,0.5,0.7,0.6,1.1,0.7c0.1,0,0.3,0,0.4,0c0.1,0.4,0.5,0.6,1,0.8c0.2,0.1,0.4,0.1,0.5,0.1c0.1,0.2,0.2,0.4,0.4,0.5
	c0.5,0.3,1.1,0.3,1.4,0.2c0.2,0.2,0.5,0.4,0.8,0.5c0.1,0,0.2,0,0.3,0c0.2,0,0.5-0.1,0.7-0.1v4.1c0,0.3,0.2,0.5,0.5,0.5
	s0.5-0.2,0.5-0.5v-4.3c0.5,0.1,1,0,1.3-0.1c0.2-0.1,0.4-0.2,0.6-0.3c0.5,0.1,1-0.1,1.4-0.4c0.1-0.1,0.2-0.3,0.3-0.4
	c0.7,0,1.2-0.3,1.4-0.6c0.1-0.1,0.2-0.3,0.3-0.4c0.5,0,0.8-0.2,1.1-0.4c0.1-0.1,0.2-0.3,0.3-0.4c1.9,1.4,4.8,2.7,6.1,3.3
	c-0.4,0.7-0.9,1.4-1.4,2.1c-1.5,2-3.3,3.6-5.3,4.7C28,60.4,27,60.8,26,61.1c0.1,0.1-0.2,0.3-0.1,0.5c0,0.1,0.3,0.2,0.3,0.2
	c1.1-0.3,2.1-0.7,3.1-1.3c0.8-0.4,1.5-1,2.2-1.5c-0.1,0.4-0.1,0.7-0.1,1.1c0,0,0,0,0,0.1c-0.3,0.2-1.2,0.9-2.4,1.5
	c-0.9,0.5-1.9,0.8-2.9,1.1H26c0,0.1-0.5,0.1-0.6,0.2c-0.3,0.4-0.3,0.6-0.7,0.7c0.5-0.1,1.1-0.2,1.6-0.3c1-0.3,2-0.6,3-1.1
	c1.3-0.6,2.2-1.3,2.5-1.5c0,0,0,0,0.1,0c0.4,0.1,0.8,0.1,1.2,0c0.5-0.1,1-0.3,1.5-0.6c0.6-0.4,1.2-0.9,1.9-1.5
	c0.1-0.1,0.1-0.2,0.1-0.3s-0.1-0.2-0.2-0.2c0,0,0,0-0.1,0c0.2-0.1,0.4-0.2,0.6-0.4c0.6-0.5,1.1-1.1,1.6-1.8c0.1-0.1,0.1-0.2,0-0.3
	c0-0.1-0.1-0.1-0.2-0.2c0.1-0.1,0.2-0.2,0.3-0.3c0.5-0.5,1-1.2,1.4-2c0.1-0.1,0-0.2,0-0.3c-0.1-0.1-0.1-0.2-0.3-0.2
	c0.1-0.1,0.2-0.3,0.4-0.4c0.5-0.6,0.9-1.3,1.2-2.1c0-0.1,0-0.2,0-0.3c-0.1-0.1-0.2-0.1-0.3-0.2l0,0c0.1-0.1,0.2-0.3,0.3-0.4
	c0.4-0.6,0.7-1.4,0.9-2.2c0-0.1,0-0.2-0.1-0.3s-0.2-0.1-0.3-0.1c0.1-0.2,0.2-0.3,0.3-0.5C42.4,45.1,42.6,44.4,42.7,43.5 M42.3,40.8
	L42.3,40.8c0,0.6-0.1,1.2-0.3,1.6c-0.2,0.5-0.4,0.9-0.7,1.3c-0.4,0.4-0.7,0.6-0.9,0.7l0,0l0,0c-0.5-0.7-0.7-1.5-0.7-2.4
	c0-0.3,0-0.6,0.1-0.9l0,0l0,0c0.4,0.5,0.7,1.2,0.7,1.2c0,0.1,0.1,0.2,0.2,0.2c0.1,0,0.2-0.1,0.2-0.1C41.4,41.6,41.9,41,42.3,40.8
	L42.3,40.8 M42.3,37.7L42.3,37.7L42.3,37.7c0,0.6,0,1.2-0.1,1.7s-0.3,1-0.6,1.3c-0.3,0.5-0.7,0.7-0.8,0.8l0,0l0,0
	c-0.8-1-0.9-2.4-0.9-3.1l0,0l0,0c0.5,0.5,0.8,1.1,0.8,1.1c0,0.1,0.1,0.2,0.2,0.1c0.1,0,0.2-0.1,0.2-0.2C41.4,38.5,41.9,38,42.3,37.7
	 M41.9,34.5L41.9,34.5C42,34.5,42,34.5,41.9,34.5c0.1,0.6,0.1,1.2,0,1.7s-0.2,1-0.5,1.4c-0.3,0.5-0.6,0.8-0.7,0.9l0,0l0,0
	c-0.8-0.7-1.1-2.2-1.2-3l0,0l0,0c0.5,0.4,0.8,1,0.8,1c0.1,0.1,0.2,0.1,0.3,0.1s0.2-0.1,0.2-0.2C41.2,35.4,41.6,34.8,41.9,34.5
	 M41.4,31.5L41.4,31.5C41.5,31.5,41.5,31.5,41.4,31.5c0.1,0.6,0.2,1.2,0.1,1.7c-0.1,0.5-0.2,1-0.4,1.4c-0.2,0.5-0.5,0.8-0.7,0.9l0,0
	l0,0c-0.7-0.6-1-1.5-1.2-2.1c-0.1-0.3-0.1-0.6-0.2-0.9l0,0l0,0c0.5,0.4,0.9,1,0.9,1c0.1,0.1,0.2,0.1,0.3,0.1s0.2-0.1,0.2-0.2
	C40.7,32.5,41.1,31.8,41.4,31.5 M17.4,31.7v-0.1c0.4-2.1,1.2-3.5,1.8-4.3c0.5-0.6,0.9-1,1.1-1.2c0.1,0,0.1-0.1,0.2-0.2
	c0.2-0.2,0.2-0.5,0.1-0.7c-0.2-0.2-0.5-0.3-0.7-0.1c0,0-0.1,0.1-0.2,0.2c-0.5,0.3-0.7,0.2-0.8,0.2c-0.1-0.1-0.2-0.3-0.2-0.5
	c0.1-0.4,0.6-1,0.8-1.2l0,0c1-1.2,2.6-1.2,2.7-1.2l0,0c0,0,0.5,0,1.1,0.2c0.9,0.3,1.5,0.9,2,1.8c0.6,1.2,1.1,2.5,1.5,3.8
	c-0.9-0.3-1.6-0.9-1.6-0.9c-0.2-0.2-0.5-0.1-0.7,0.1c-0.1,0.1-0.1,0.2-0.1,0.4c0,0.1,0.1,0.2,0.2,0.3c0,0,1.2,1,2.5,1.3
	c0.1,0.5,0.2,0.9,0.3,1.5c-0.4-0.2-0.9-0.4-1.4-0.5c-0.3-0.1-0.6-0.1-0.8-0.2c-0.9-0.4-1.7-1-1.7-1C23.3,29,23,29,22.9,29.2
	c-0.2,0.2-0.1,0.5,0.1,0.7c0,0,0.9,0.7,2,1.1c0.3,0.1,0.6,0.2,0.9,0.3c1.2,0.3,1.7,0.5,1.7,1.1c0,0.1-0.1,0.2-0.1,0.2
	C27.1,33,26.3,33,26,33l0,0h-1.1c-0.2,0-1.3-0.1-2.3-0.7C19.9,30.8,18.8,31.1,17.4,31.7 M21.7,33.1h-3.4c-0.3,0-0.6-0.1-0.7-0.3
	l-0.1-0.1C18.9,32.1,19.6,31.9,21.7,33.1 M23,39.2v-5.1h1.7l0,0l0,0h1h0.1c0.1,0,0.4,0,0.6-0.1c0.6-0.1,1.1-0.3,1.4-0.7
	c0.1-0.1,0.3-0.4,0.4-0.6v-0.1c0.1-0.2,0.1-0.5,0-0.9v-0.1c-0.3-2-0.7-4.6-2.2-7.6c-1.3-2.6-3.8-2.5-4-2.4c-0.2,0-2.1,0.1-3.3,1.5
	c-0.1,0.1-0.9,0.9-1,1.7c-0.1,0.6,0.1,1.2,0.6,1.5c0.1,0,0.2,0.1,0.3,0.1c-0.8,1-1.7,2.6-2.2,5c-0.1,0.4-0.1,0.8-0.1,1.1v0.1
	c0.1,0.4,0.2,0.7,0.4,0.9c0.2,0.3,0.7,0.6,1.5,0.6h3.6v5.1v3.1c-1,0-1.7,0.3-2.6,1c-1.3,0.9-5.6,1.7-12.8,2.5
	c-0.5-2.1-0.8-4.4-0.8-6.6c0-3,0.4-5.9,1.3-8.7c0.8-2.6,2.1-5,3.6-7.1c1.5-2,3.3-3.6,5.3-4.7c2.1-1.1,4.2-1.7,6.5-1.7
	c2.2,0,4.4,0.6,6.5,1.7c2,1.1,3.8,2.7,5.3,4.7s2.8,4.4,3.6,7.1c0.9,2.7,1.3,5.7,1.3,8.7c0,2.3-0.3,4.6-0.8,6.7
	C34,45.7,28.8,44,28.7,44c-0.4-0.1-0.7-0.2-1-0.4c-1.1-0.4-1.9-0.7-2.8-0.6c-0.1,0-0.1,0-0.2,0c-0.5-0.3-1-0.4-1.7-0.6V39.2z
	 M29.9,16c-0.3,0.1-0.7,0.2-1.2,0.3c-0.3,0.1-0.6,0.1-0.8,0.1c-0.6,0-1.2-0.2-1.6-0.5l0,0l0,0c0.2-0.1,0.5-0.3,1-0.4
	c0.5-0.1,0.9-0.1,1.4,0C29,15.6,29.4,15.7,29.9,16L29.9,16L29.9,16 M30.5,17.8L30.5,17.8L30.5,17.8C30.3,17.9,30,18,29.7,18h-0.1
	c-0.8,0-1.5-0.3-2.2-0.8l0,0l0,0c0.3-0.1,0.6-0.2,0.9-0.2C29.2,16.9,29.9,17.2,30.5,17.8 M27,15c-0.3,0.1-0.8,0.3-1.6,0.4
	c-0.1,0-0.2,0.1-0.2,0.2c0,0.1,0,0.2,0.1,0.3c0,0,0.6,0.4,1,1l0,0l0,0l0,0c-0.7,0-2.1-0.2-3-1.4l0,0c0.2-0.1,0.4-0.4,0.8-0.5
	C24.9,14.7,25.9,14.7,27,15L27,15L27,15 M23.8,14.5c-0.3,0.2-0.7,0.5-1.5,0.7c-0.1,0-0.2,0.1-0.2,0.2c0,0.1,0.1,0.2,0.2,0.3
	c0,0,0.6,0.2,1.2,0.7l0,0l0,0c-0.2,0-0.4,0-0.6,0c-0.8,0-1.8-0.1-2.6-0.7l0,0c0.1-0.2,0.3-0.4,0.7-0.7
	C21.6,14.6,22.6,14.4,23.8,14.5C23.8,14.4,23.8,14.4,23.8,14.5L23.8,14.5 M20.5,14.5c-0.2,0.3-0.6,0.6-1.3,1c-0.1,0-0.2,0.2-0.1,0.3
	c0,0.1,0.1,0.2,0.2,0.2c0,0,0.7,0.1,1.3,0.4l0,0l0,0c-0.3,0.1-0.6,0.2-0.9,0.2s-0.6,0.1-0.9,0.1c-0.5,0-1-0.1-1.6-0.3l0,0
	c0.1-0.2,0.2-0.5,0.5-0.8C18.3,15.1,19.3,14.7,20.5,14.5L20.5,14.5L20.5,14.5 M16.2,16.6c-0.1,0.1-0.1,0.2-0.1,0.3
	c0,0.1,0.1,0.2,0.2,0.2l0,0c0,0,0.3,0,0.7,0c0.3,0,0.5,0.1,0.7,0.1l0,0l0,0c-0.3,0.1-0.5,0.3-0.8,0.4c-0.6,0.2-1.1,0.3-1.6,0.3
	c-0.4,0-0.7-0.1-0.9-0.1l0,0c0.1-0.5,0.6-1.9,2.9-2.7l0,0l0,0C17.2,15.4,16.9,16,16.2,16.6 M39.8,30.4c0.1-0.9,0.4-1.6,0.6-2l0,0
	l0,0c0.2,0.6,0.3,1.1,0.3,1.6s0,1-0.2,1.4c-0.2,0.5-0.4,0.9-0.5,1l0,0l0,0c-0.7-0.4-1.2-1.1-1.5-1.9c-0.1-0.3-0.2-0.6-0.3-0.8l0,0
	l0,0c0.6,0.3,1.1,0.9,1.1,0.9c0.1,0.1,0.2,0.1,0.3,0.1C39.8,30.6,39.8,30.5,39.8,30.4 M38.8,27.6c0-0.9,0.2-1.6,0.4-2l0,0l0,0
	c0.2,0.5,0.4,1.1,0.5,1.6s0.1,1,0,1.5s-0.3,0.9-0.4,1l0,0l0,0c-0.7-0.3-1.3-0.9-1.7-1.8c-0.1-0.3-0.2-0.5-0.3-0.8l0,0l0,0
	c0.6,0.3,1.1,0.7,1.1,0.8c0.1,0.1,0.2,0.1,0.3,0C38.7,27.8,38.8,27.7,38.8,27.6 M37.4,25.1L37.4,25.1c0.1-0.1,0.1-0.2,0.1-0.3
	c-0.1-0.9,0-1.6,0.2-2.1l0,0l0,0c0.3,0.5,0.5,1,0.7,1.5c0.1,0.5,0.2,1,0.1,1.5c-0.1,0.5-0.2,0.9-0.3,1.1l0,0l0,0
	c-0.8-0.3-1.4-0.8-1.9-1.6c-0.2-0.2-0.3-0.5-0.4-0.8l0,0l0,0c0.7,0.2,1.2,0.6,1.3,0.6C37.1,25.2,37.3,25.2,37.4,25.1 M35.4,22.6
	c0.1,0.1,0.2,0.1,0.3,0s0.1-0.2,0.1-0.3c-0.3-0.8-0.2-1.6-0.1-2.1l0,0l0,0c0.4,0.5,0.7,0.9,0.9,1.4s0.3,1,0.4,1.4
	c0,0.5-0.1,0.9-0.1,1.1l0,0l0,0c-0.8-0.1-1.5-0.6-2.1-1.3c-0.2-0.2-0.4-0.5-0.6-0.7l0,0l0,0C34.8,22.2,35.4,22.6,35.4,22.6
	 M33.5,20.4c0.1,0,0.2,0,0.3-0.1s0.1-0.2,0-0.3c-0.4-0.8-0.5-1.5-0.5-2l0,0l0,0c0.4,0.4,0.8,0.8,1.1,1.2c0.3,0.4,0.5,0.9,0.6,1.3
	c0.1,0.5,0.1,1,0.1,1.1l0,0l0,0c-0.9,0-1.7-0.5-2.2-0.9c-0.3-0.2-0.5-0.4-0.7-0.7l0,0l0,0h0.1C32.9,20.2,33.5,20.4,33.5,20.4
	 M32.7,18.4c0.2,0.5,0.2,1,0.2,1.3l0,0h-0.1c-1.1,0-2.3-0.7-3-1.2l0,0l0,0c0.7-0.1,1.3,0,1.3,0c0.1,0,0.2,0,0.3-0.1
	c0.1-0.1,0.1-0.2,0-0.3c-0.4-0.5-0.7-1.1-0.8-1.6l0,0l0,0C31.6,16.9,32.4,17.5,32.7,18.4 M13.4,15.3c0.1,0,0.1,0,0.2-0.1
	c0.6-0.2,1.2-0.4,1.5-0.4c0.7-0.2,1.2-0.5,1.2-0.5c0.1,0,0.1-0.1,0.1-0.2c0-0.1-0.1-0.1-0.1-0.1l-3.1-0.4l3.1-0.5
	c0.1,0,0.2-0.1,0.2-0.2c0-0.1-0.1-0.2-0.2-0.2c0,0-0.7-0.1-1.4-0.4c-0.2-0.1-0.4-0.2-0.5-0.3c-0.3-0.1-0.5-0.3-0.9-0.4
	c0.1,0,0.1,0,0.2,0c0.7,0,1.3,0.1,1.6,0.2c0.7,0.1,1.3,0,1.3,0c0.1,0,0.1-0.1,0.1-0.1c0-0.1,0-0.1-0.1-0.2l-2.7-1.6l3,0.8
	c0.1,0,0.2,0,0.2-0.1s0-0.2-0.1-0.2c0,0-0.6-0.3-1.1-0.9c-0.1-0.2-0.3-0.3-0.4-0.5c-0.2-0.2-0.4-0.5-0.7-0.7c0.1,0,0.1,0,0.1,0.1
	C15.5,8.7,16,9,16.3,9.2c0.6,0.4,1.2,0.5,1.2,0.5c0.1,0,0.1,0,0.2-0.1c0-0.1,0-0.1,0-0.2l-1.9-2.5l2.5,1.8c0.1,0.1,0.2,0,0.2,0
	c0.1-0.1,0.1-0.2,0-0.2c0-0.1-0.4-0.6-0.7-1.3c-0.1-0.2-0.1-0.4-0.2-0.6c-0.1-0.3-0.2-0.6-0.3-0.9l0.1,0.1c0.4,0.5,0.8,1,1,1.2
	c0.4,0.6,0.8,0.9,0.9,0.9s0.1,0,0.2,0s0.1-0.1,0.1-0.2l-0.8-3l1.6,2.7c0,0.1,0.1,0.1,0.2,0.1s0.1-0.1,0.1-0.2c0,0-0.2-0.7-0.1-1.4
	c0-0.2,0-0.4,0-0.6c0-0.3,0.1-0.6,0-1c0,0.1,0,0.1,0.1,0.2c0.2,0.6,0.4,1.2,0.4,1.5c0.1,0.7,0.4,1.1,0.5,1.2c0,0.1,0.1,0.1,0.2,0.1
	C22,7.4,22,7.3,22,7.2l0.4-3l0.4,3c0,0.1,0.1,0.2,0.2,0.2s0.2-0.1,0.2-0.2c0,0,0.1-0.7,0.4-1.4c0.1-0.2,0.2-0.4,0.3-0.5
	C24,5,24.2,4.8,24.3,4.4c0,0.1,0,0.1,0,0.2c0,0.7-0.1,1.3-0.2,1.6c-0.1,0.7,0,1.3,0,1.3c0,0.1,0.1,0.1,0.1,0.1c0.1,0,0.1,0,0.2-0.1
	L26,4.8l-0.8,3c0,0.1,0,0.2,0.1,0.2s0.2,0,0.2-0.1s0.4-0.6,0.9-1.1c0.2-0.1,0.3-0.3,0.5-0.4c0.2-0.2,0.5-0.4,0.7-0.7
	c0,0,0,0.1-0.1,0.1c-0.3,0.6-0.6,1.1-0.8,1.4c-0.4,0.6-0.5,1.2-0.5,1.2c0,0.1,0,0.1,0.1,0.2c0.1,0,0.1,0,0.2,0L29,6.7l-1.8,2.5
	c-0.1,0.1,0,0.2,0,0.2c0.1,0.1,0.2,0.1,0.2,0c0,0,0.5-0.4,1.3-0.7c0.2-0.1,0.4-0.1,0.6-0.2c0.3-0.1,0.6-0.2,0.9-0.3l-0.1,0.1
	c-0.5,0.4-1,0.8-1.2,1c-0.6,0.4-0.9,0.9-0.9,0.9c0,0.1,0,0.1,0,0.2c0,0.1,0.1,0.1,0.2,0.1l3-0.8l-2.7,1.6c-0.1,0-0.1,0.1-0.1,0.2
	c0,0.1,0.1,0.1,0.2,0.1s0.7-0.2,1.4-0.1c0.2,0,0.4,0,0.6,0c0.3,0,0.6,0.1,1,0c-0.1,0-0.1,0-0.2,0.1c-0.6,0.2-1.2,0.4-1.5,0.4
	c-0.7,0.2-1.2,0.5-1.2,0.5c-0.1,0-0.1,0.1-0.1,0.2c0,0.1,0.1,0.1,0.1,0.1l3.1,0.4l-3,0.8c-0.1,0-0.2,0.1-0.2,0.2
	c0,0.1,0.1,0.2,0.2,0.2s0.7,0.1,1.4,0.4c0.2,0.1,0.4,0.2,0.5,0.3c0.3,0.1,0.5,0.3,0.9,0.4c-0.1,0-0.1,0-0.2,0
	c-0.7,0-1.3-0.1-1.6-0.2h-0.1c-0.6-0.2-1.1-0.4-1.7-0.4l0,0c0-0.1-0.1-0.2-0.2-0.3c-0.8-0.3-1.6-0.4-2.3-0.4c-0.3,0-0.5,0-0.7,0.1
	v-0.1c-0.1-0.1-0.2-0.2-0.3-0.2c-0.9-0.1-1.7-0.1-2.4,0c-0.3,0.1-0.5,0.1-0.8,0.2c0-0.1,0-0.1-0.1-0.2c-0.1-0.1-0.2-0.1-0.3-0.1
	c-0.9,0.1-1.7,0.3-2.3,0.5c-0.2,0.1-0.3,0.2-0.5,0.2c0-0.1-0.1-0.2-0.1-0.2c-0.1-0.1-0.2-0.1-0.3-0.1c-0.9,0.2-1.6,0.6-2.2,1l0,0
	c-0.2,0-0.3,0-0.5,0c-0.1,0-0.6,0-0.6,0C14,15.3,13.7,15.2,13.4,15.3 M14.2,16.1L14.2,16.1C14.2,16.1,14.2,16.2,14.2,16.1
	c0,0.5-0.1,1.2-0.6,2c-0.1,0.1-0.1,0.2,0,0.3c0.1,0.1,0.2,0.1,0.3,0.1c0,0,0.7-0.1,1.3-0.1l0,0l0,0c-0.6,0.5-1.7,1.2-2.9,1.2h-0.1
	l0,0C12.1,19.1,12.2,17.6,14.2,16.1 M10,20.6c0.1-0.5,0.3-0.9,0.6-1.3s0.7-0.9,1.1-1.3l0,0l0,0c0,0.5-0.1,1.2-0.5,2
	c0,0.1,0,0.2,0,0.3c0.1,0.1,0.2,0.1,0.3,0.1c0,0,0.6-0.2,1.3-0.2l0,0l0,0c-0.3,0.2-0.5,0.5-0.8,0.7c-0.5,0.4-1.3,0.9-2,0.9H9.9l0,0
	C9.9,21.6,9.9,21.2,10,20.6 M9.3,20.3L9.3,20.3L9.3,20.3c0.1,0.5,0.2,1.2-0.1,2.1c0,0.1,0,0.2,0.1,0.3c0.1,0.1,0.2,0.1,0.3,0
	c0,0,0.6-0.4,1.3-0.4l0,0l0,0c-0.5,0.7-1.4,1.8-2.7,2l0,0l0,0C8,23.6,7.7,22.1,9.3,20.3 M6.6,24.3c0.2-0.5,0.4-1,0.7-1.5l0,0l0,0
	c0.1,0.4,0.3,1.2,0.1,2.1c0,0.1,0,0.2,0.1,0.3c0.1,0.1,0.2,0,0.3,0c0,0,0.5-0.5,1.3-0.6l0,0l0,0c-0.1,0.2-0.3,0.5-0.5,0.8
	c-0.6,0.8-1.2,1.3-2,1.5l0,0l0,0c-0.1-0.1-0.2-0.5-0.3-1.1C6.4,25.3,6.5,24.8,6.6,24.3 M5.1,27.1c0.1-0.5,0.2-1,0.5-1.6l0,0l0,0l0,0
	c0.2,0.4,0.5,1.1,0.4,2c0,0.1,0.1,0.2,0.1,0.2c0.1,0,0.2,0,0.3,0c0,0,0.6-0.5,1.2-0.8l0,0l0,0c-0.1,0.3-0.2,0.5-0.3,0.8
	c-0.4,0.8-1,1.4-1.8,1.8l0,0l0,0c-0.1-0.2-0.3-0.5-0.4-1C5.1,28.1,5.1,27.6,5.1,27.1 M4.4,28.4L4.4,28.4L4.4,28.4
	c0.3,0.4,0.6,1,0.7,2c0,0.1,0.1,0.2,0.2,0.2s0.2,0,0.3-0.1c0,0,0.5-0.6,1.1-0.9l0,0l0,0c0,0.3-0.1,0.5-0.2,0.8
	c-0.3,0.9-0.8,1.6-1.6,2l0,0l0,0c-0.1-0.1-0.4-0.5-0.5-1C4.2,31,4.2,30.5,4.2,30C4.1,29.5,4.2,29,4.4,28.4 M3.5,31.5
	C3.5,31.4,3.5,31.4,3.5,31.5C3.5,31.4,3.5,31.4,3.5,31.5c0.3,0.4,0.8,1,0.9,1.9c0,0.1,0.1,0.2,0.2,0.2s0.2,0,0.3-0.1
	c0,0,0.4-0.6,1-1l0,0l0,0c0,0.3-0.1,0.5-0.1,0.8c-0.2,0.9-0.6,1.6-1.3,2.2l0,0l0,0c-0.2-0.2-0.5-0.5-0.7-1c-0.2-0.4-0.3-0.9-0.4-1.4
	C3.3,32.6,3.4,32,3.5,31.5 M3,34.5L3,34.5L3,34.5c0.4,0.3,0.8,0.9,1,1.8c0,0.1,0.1,0.2,0.2,0.2s0.2,0,0.3-0.1c0,0,0.3-0.6,0.8-1.1
	l0,0l0,0c0,0.3,0,0.6-0.1,0.9c-0.2,0.9-0.5,1.7-1.1,2.2l0,0l0,0C4,38.3,3.7,38,3.5,37.6S3.1,36.7,3,36.2S2.9,35.1,3,34.5 M2.7,37.7
	C2.7,37.7,2.8,37.7,2.7,37.7C2.8,37.7,2.8,37.7,2.7,37.7c0.1,0,0.2,0.1,0.2,0.2c0.3,0.3,0.7,0.8,0.9,1.6c0,0.1,0.1,0.2,0.3,0.2
	c0.1,0,0.2-0.1,0.2-0.2c0,0,0.1-0.7,0.7-1.2l0,0l0,0c0.1,0.4,0.1,0.9,0,1.5c-0.1,0.7-0.4,1.3-0.9,1.8l0,0l0,0
	C3.7,41.2,2.6,40.1,2.7,37.7 M2.6,40.8L2.6,40.8c0.1,0.1,0.2,0.1,0.2,0.2c0.3,0.3,0.8,0.8,1.1,1.5c0,0.1,0.1,0.2,0.2,0.2l0,0
	c0.1,0,0.2-0.1,0.2-0.2c0,0,0.3-0.7,0.7-1.2l0,0l0,0c0.1,0.7,0.2,1.9-0.7,3.3l0,0l0,0C3.9,44.2,2.7,43.3,2.6,40.8L2.6,40.8 M2.8,44
	L2.8,44L2.8,44c0.5,0.2,1.1,0.6,1.6,1.4c0.1,0.1,0.2,0.1,0.3,0.1c0.1,0,0.2-0.1,0.2-0.2l0,0l0,0c0,0,0.2-0.8,0.5-1.4l0,0l0,0
	c0.1,0.3,0.2,0.5,0.3,0.8c0.2,0.9,0,1.7-0.4,2.5l0,0l0,0c-0.2-0.1-0.6-0.2-1-0.6c-0.4-0.3-0.7-0.7-0.9-1.2C3.1,45.2,2.9,44.6,2.8,44
	 M3.5,47L3.5,47L3.5,47c0.1,0,0.2,0.1,0.3,0.1c0.4,0.2,0.9,0.5,1.4,1.2c0.1,0.1,0.2,0.1,0.3,0.1c0.1,0,0.2-0.1,0.2-0.2
	c0,0,0.1-0.7,0.4-1.3l0,0l0,0c0.3,0.7,0.7,2,0.1,3.3l0,0l0,0C5.6,50,4.2,49.4,3.5,47 M5.3,51.5c-0.3-0.4-0.6-0.9-0.9-1.4l0,0l0,0
	c0.1,0,0.2,0.1,0.3,0.1c0.4,0.1,1,0.4,1.5,1c0.1,0.1,0.2,0.1,0.3,0.1c0.1,0,0.2-0.1,0.2-0.2c0,0,0-0.7,0.2-1.4l0,0l0,0
	C7,50,7.2,50.2,7.3,50.5c0.3,0.9,0.4,1.7,0.1,2.5l0,0l0,0c-0.2,0-0.6-0.1-1.1-0.4C6,52.2,5.7,51.9,5.3,51.5 M5.8,52.9L5.8,52.9
	L5.8,52.9C6.3,53,7,53.2,7.7,53.8c0.1,0.1,0.2,0.1,0.3,0s0.1-0.2,0.1-0.3c0,0-0.1-0.7,0.1-1.3l0,0l0,0c0.2,0.3,0.3,0.5,0.5,0.8
	c0.3,0.6,0.6,1.5,0.4,2.4l0,0l0,0c-0.2,0-0.6-0.1-1.1-0.3c-0.4-0.2-0.8-0.5-1.2-0.8C6.4,53.9,6.1,53.4,5.8,52.9 M11.7,58.1
	c0,0-0.3-0.6-0.3-1.3l0,0l0,0c0.6,0.5,1.6,1.6,1.5,3l0,0c-0.1,0-0.2,0-0.4,0s-0.4,0-0.6-0.1c-0.9-0.2-1.8-0.7-2.7-1.5l0,0l0,0
	c0.5-0.1,1.2-0.1,2.1,0.3c0.1,0,0.2,0,0.3-0.1C11.8,58.3,11.8,58.2,11.7,58.1 M9.4,56.2c0.1,0.1,0.2,0.1,0.3,0s0.1-0.2,0.1-0.3
	c0,0-0.2-0.6-0.1-1.3l0,0l0,0c0.5,0.6,1.3,1.8,1.2,3l0,0h-0.1c-0.2,0-0.6,0-1-0.2c-0.4-0.1-0.9-0.4-1.3-0.7
	c-0.4-0.3-0.8-0.7-1.1-1.2l0,0l0,0C7.9,55.6,8.6,55.7,9.4,56.2 M19.5,49.4c-0.1,0.1-0.2,0.1-0.2,0.2c-0.6,0.4-0.9,0.8-1,1.2
	c-0.1,0-0.1,0-0.2-0.1c-0.4-0.1-0.4-0.4-0.5-0.4c0-0.2,0.1-0.4,0.4-0.7c0.4-0.4,0.7-0.5,1-0.5c0.1,0,0.2,0,0.3,0.1
	C19.4,49.2,19.5,49.3,19.5,49.4L19.5,49.4 M20,51.6c-0.2,0-0.6,0.1-0.9-0.1c-0.1,0-0.1-0.1-0.1-0.2c0-0.4,0.4-0.7,0.7-0.9
	c0.4-0.3,0.7-0.5,1-0.5c0.1,0,0.2,0,0.3,0.1c0.1,0.1,0.1,0.1,0.1,0.2c0,0.1-0.2,0.3-0.3,0.4C20.5,50.9,20.2,51.2,20,51.6 M22.2,51.7
	c-0.2,0.1-0.7,0.5-1.1,0.4c-0.1,0-0.2,0-0.3-0.1c0.2-0.4,0.6-0.7,1-0.9c0.5-0.3,0.7-0.1,0.7-0.1c0.1,0.1,0.1,0.2,0.1,0.2
	C22.6,51.3,22.4,51.6,22.2,51.7C22.3,51.6,22.3,51.6,22.2,51.7 M17.6,48.8c-0.1,0.1-0.1,0.1-0.2,0.2c-0.3,0.2-0.5,0.5-0.6,0.9
	c-0.1,0-0.1,0-0.2,0c-0.3,0-0.4-0.1-0.5-0.2c0,0-0.1-0.2,0.1-0.4c0.2-0.3,0.7-0.6,1.1-0.6h0.1l0,0C17.5,48.8,17.6,48.8,17.6,48.8
	 M28.7,49.4c-0.1,0.1-0.3,0.2-0.6,0.2c-0.4-0.5-1.3-1.6-2.5-2.2c-0.1-0.1-0.2-0.1-0.3,0c-0.1,0-0.2,0.1-0.2,0.2
	c-0.1,0.1-0.1,0.2,0,0.3c0,0.1,0.1,0.2,0.2,0.2c1,0.5,1.8,1.5,2.2,1.9c0,0.1-0.1,0.1-0.1,0.2c-0.2,0.2-0.4,0.3-0.7,0.3
	c-0.1-0.2-0.3-0.5-0.6-0.8c-0.4-0.4-1.1-0.9-1.1-1c-0.1-0.1-0.2-0.1-0.3-0.1c-0.1,0-0.2,0.1-0.3,0.2c-0.1,0.1-0.1,0.2-0.1,0.3
	s0.1,0.2,0.2,0.3c0.2,0.1,0.7,0.5,1,0.8s0.4,0.5,0.4,0.6s-0.1,0.2-0.2,0.3c-0.2,0.1-0.3,0.2-0.6,0.2c-0.1-0.2-0.4-0.7-0.8-1.2
	c-0.2-0.2-0.4-0.2-0.6,0c-0.1,0.1-0.1,0.2-0.1,0.3s0,0.2,0.1,0.3c0.3,0.3,0.5,0.7,0.6,0.9c-0.1,0-0.1,0.1-0.2,0.1
	c-0.2,0.1-0.5,0.1-0.7,0.1c0.1-0.2,0.2-0.3,0.2-0.5s0-0.6-0.4-1c-0.2-0.2-0.6-0.4-1-0.3c0-0.3-0.2-0.5-0.4-0.7
	c-0.4-0.3-0.9-0.4-1.4-0.3l0,0c-0.1-0.2-0.3-0.5-0.7-0.7c-0.4-0.2-0.8-0.2-1.2-0.1c-0.4-0.3-0.8-0.4-0.9-0.4
	c-0.6-0.1-1.3,0.2-1.8,0.7c-2.5,1.3-5.6,2.7-6.9,3.3c-0.7-1.3-1.3-2.6-1.7-4.1C7,47.4,6.9,47,6.8,46.6c3.6-0.4,6.5-0.8,8.7-1.3
	c2.2-0.4,3.7-0.9,4.4-1.4c0.8-0.6,1.4-0.9,2.2-0.8c0.2,0,0.4,0,0.5,0.1c-0.2,0.1-0.3,0.1-0.4,0.2c-0.3,0.2-0.5,0.4-0.7,0.6
	c-0.2,0.2-0.3,0.3-0.6,0.4c-0.2,0.1-0.4,0.2-0.6,0.3c-0.5,0.2-0.9,0.4-1,0.8c-0.1,0.4-0.1,0.7,0.2,1.1c0.4,0.5,1,0.5,1.5,0.5
	c0.6,0,1.3-0.2,1.8-0.5c0.2-0.1,0.3-0.2,0.5-0.3s0.4-0.3,0.5-0.3l0,0c0.4-0.1,0.9-0.1,1.5,0.2c0.5,0.2,1,0.5,1.5,0.8
	c1.1,0.7,2,1.7,2.2,2C28.9,49.1,28.9,49.2,28.7,49.4 M30.3,49c-0.4-0.3-0.6-0.5-0.8-0.7l0,0l0,0l-0.1-0.1c-0.4-0.5-1.2-1.4-2.3-2.1
	c-0.8-0.5-2.3-1.5-3.7-1.1c-0.3,0.1-0.5,0.2-0.8,0.4c-0.1,0.1-0.3,0.2-0.4,0.3c-0.4,0.3-1,0.4-1.4,0.4s-0.7,0-0.8-0.1v-0.1
	c0.1-0.1,0.4-0.3,0.6-0.3c0.2-0.1,0.5-0.2,0.7-0.4c0.3-0.2,0.5-0.3,0.6-0.5c0.2-0.1,0.4-0.3,0.7-0.5c0.4-0.3,0.9-0.3,1.6-0.3l0,0
	c0.1,0,0.2,0,0.3,0c0.1,0,0.2,0,0.3,0c0.8,0,1.5,0.2,2.5,0.6c0.3,0.1,0.6,0.2,1,0.4c0.1,0,1.5,0.5,3.4,0.9c1.7,0.4,4.1,0.9,6.4,1
	c-0.1,0.4-0.2,0.7-0.3,1.1c-0.5,1.5-1.1,2.9-1.8,4.2C34.9,51.6,32.1,50.4,30.3,49 M35.7,58.2c-1.1,1-2.1,1.4-2.7,1.5
	c-0.2,0-0.4,0.1-0.6,0.1c-0.2,0-0.3,0-0.4,0l0,0c0-0.8,0.3-1.6,0.9-2.3c0.2-0.2,0.4-0.4,0.7-0.6l0,0l0,0c-0.1,0.7-0.3,1.3-0.3,1.3
	c0,0.1,0,0.2,0.1,0.3s0.2,0.1,0.3,0.1C34.4,58.1,35.2,58.1,35.7,58.2L35.7,58.2L35.7,58.2 M37.6,55.6c-0.4,0.5-0.7,0.9-1.1,1.2
	c-0.4,0.3-0.8,0.6-1.3,0.7c-0.4,0.1-0.8,0.2-1,0.2h-0.1l0,0c-0.1-0.8,0.2-1.5,0.7-2.3c0.2-0.2,0.3-0.5,0.5-0.7l0,0l0,0
	c0.1,0.7-0.1,1.3-0.1,1.4c0,0.1,0,0.2,0.1,0.3s0.2,0.1,0.3,0C36.4,55.7,37.1,55.6,37.6,55.6L37.6,55.6L37.6,55.6 M38.2,54.2
	c-0.4,0.4-0.8,0.6-1.2,0.8c-0.5,0.2-0.9,0.3-1.1,0.3l0,0l0,0c-0.1-0.8,0-1.6,0.4-2.4c0.1-0.3,0.3-0.5,0.5-0.8l0,0l0,0
	c0.1,0.7,0.1,1.4,0.1,1.4c0,0.1,0,0.2,0.1,0.3c0.1,0,0.2,0,0.3,0c0.7-0.6,1.4-0.8,1.9-0.9l0,0l0,0C38.9,53.4,38.6,53.9,38.2,54.2
	 M39.7,51.5c-0.3,0.4-0.7,0.7-1.1,1c-0.5,0.3-0.9,0.4-1.1,0.4l0,0l0,0c-0.2-0.8-0.2-1.6,0.1-2.5c0.1-0.3,0.2-0.5,0.4-0.8l0,0l0,0
	c0.2,0.7,0.2,1.3,0.2,1.3c0,0.1,0.1,0.2,0.2,0.2c0.1,0,0.2,0,0.3-0.1c0.6-0.6,1.1-0.9,1.5-1c0.1,0,0.2-0.1,0.3-0.1l0,0l0,0
	C40.3,50.5,40,51,39.7,51.5 M40.7,48.5c-0.3,0.4-0.6,0.8-1,1.1s-0.9,0.5-1,0.5l0,0l0,0c-0.4-0.9-0.3-1.8-0.1-2.5
	c0.1-0.3,0.2-0.6,0.3-0.9l0,0l0,0l0,0c0.3,0.6,0.4,1.4,0.4,1.4c0,0.1,0.1,0.2,0.2,0.2c0.1,0,0.2,0,0.3-0.1c0.6-0.7,1.2-1.1,1.7-1.3
	l0,0l0,0C41.3,47.6,41,48.1,40.7,48.5 M41.6,45.5c-0.2,0.5-0.5,0.9-0.9,1.2c-0.4,0.4-0.8,0.5-0.9,0.6l0,0l0,0
	c-0.4-0.7-0.5-1.5-0.4-2.5c0-0.3,0.1-0.6,0.2-0.9l0,0l0,0c0.4,0.6,0.5,1.3,0.5,1.4c0,0.1,0.1,0.2,0.2,0.2c0.1,0,0.2,0,0.3-0.1
	c0.5-0.8,1.1-1.2,1.5-1.5l0,0l0,0C42,44.5,41.8,45,41.6,45.5"/>
<path class="st5" d="M23.6,11c3-0.5,3.3,0.4,3.3,0.4s0.1,0.2,0.3,0.1c0,0,0.2,0,0.1-0.3c0,0-0.3-1-1.9-1.1c0,0-0.8-0.1-1.7,0
	c-0.3,0-0.3,0.6-0.3,0.6C23.3,11,23.6,11,23.6,11"/>
<path class="st5" d="M21,11.5c-0.4-0.2-1.2-0.1-1.2-0.1c-1.3,0-1.7,0.9-1.7,0.9c-0.1,0.3,0.1,0.3,0.1,0.3c0.3,0.1,0.4-0.2,0.4-0.2
	s0.1-0.2,0.6-0.4c0,0.1,0,0.2,0,0.3c0,0.4,0.3,0.7,0.7,0.7c0.4,0,0.7-0.3,0.7-0.7c0-0.1,0-0.2-0.1-0.3c0.2,0.1,0.4,0.2,0.5,0.4
	c0,0.1,0.2,0.1,0.4,0.1c0.3,0,0.2-0.2,0.2-0.2C21.5,11.7,21,11.5,21,11.5"/>
<path class="st5" d="M23.5,12.6c0.3,0,0.4,0,0.4-0.1c0.1-0.2,0.3-0.4,0.5-0.4c0,0.1-0.1,0.2-0.1,0.3c0,0.4,0.3,0.7,0.7,0.7
	c0.4,0,0.7-0.3,0.7-0.7c0-0.1,0-0.2,0-0.3c0.6,0.1,0.6,0.4,0.6,0.4s0.1,0.2,0.4,0.2c0,0,0.2,0,0.1-0.3c0,0-0.4-0.8-1.7-0.9
	c0,0-0.8,0-1.2,0.1c0,0-0.4,0.2-0.6,0.9C23.3,12.5,23.2,12.6,23.5,12.6"/>
<path class="st5" d="M17.7,11.5c0.2,0.1,0.3-0.1,0.3-0.1s0.3-0.9,3.3-0.4c0,0,0.3,0.1,0.2-0.2c0,0-0.1-0.6-0.3-0.6
	c-0.9-0.2-1.7,0-1.7,0c-1.6,0.2-1.9,1.1-1.9,1.1C17.5,11.5,17.7,11.5,17.7,11.5"/>
<path class="st3" d="M24,64.2c0-0.1,0-0.2,0-0.4c0-0.1,0-0.2,0-0.3c0.5-0.1,1.4-0.4,1.9-1c0.3-0.3,0.4-0.8,0.4-1.2s-0.2-0.7-0.6-0.9
	c-0.9-0.6-2.7-0.2-3.2,0c-0.5-0.1-2.3-0.6-3.2,0c-0.3,0.2-0.5,0.5-0.6,0.9c-0.1,0.5,0.1,0.9,0.4,1.2c0.5,0.6,1.4,0.9,1.9,1
	c0,0.1,0,0.2,0,0.3s0,0.2,0,0.4c-0.4,0.4-1.7,1.5-3.5,1.7l0,0c0.1,0.1,0.2,0.4,0.5,0.6c1.6-0.3,2.8-1.2,3.3-1.7
	c0.1,0.1,0.1,0.1,0.2,0.2c-0.1,0.5-0.6,1.6-2.6,2.1c0.3,0.2,0.7,0.3,1.2,0.3c1.4-0.6,1.9-1.6,2.1-2.2c0.1,0,0.2,0,0.3,0
	c0.1,0,0.2,0,0.3,0c0.2,0.6,0.7,1.5,2.1,2.2c0.5-0.1,0.9-0.2,1.2-0.3c-2-0.5-2.5-1.7-2.6-2.1c0.1-0.1,0.1-0.1,0.2-0.2
	c0.5,0.5,1.7,1.4,3.3,1.7c0.3-0.3,0.5-0.6,0.5-0.6C25.6,65.7,24.4,64.6,24,64.2z M20.5,61.6c-0.1,0.4-0.1,0.8,0.1,1.1
	c-0.4-0.1-0.7-0.3-0.9-0.6c-0.2-0.2-0.2-0.4-0.2-0.7c0-0.2,0.1-0.3,0.3-0.4c0.2-0.1,0.5-0.2,0.9-0.2c0.2,0,0.3,0,0.5,0
	C20.8,61,20.6,61.2,20.5,61.6z M22.5,64.7c-0.4,0-0.8-0.4-0.8-0.8c0-0.4,0.4-0.8,0.8-0.8s0.8,0.4,0.8,0.8
	C23.3,64.3,22.9,64.7,22.5,64.7z M23.5,62.7c-0.3-0.2-0.6-0.4-1-0.4s-0.7,0.1-1,0.4c-0.2-0.2-0.4-0.6-0.3-0.9
	c0.3-0.7,1.3-0.7,1.3-0.7l0,0c0,0,0.3,0,0.6,0.1c0.4,0.1,0.6,0.3,0.7,0.6C23.9,62.1,23.7,62.5,23.5,62.7z M25.3,61
	c0.1,0.1,0.2,0.2,0.3,0.4c0,0.3,0,0.5-0.2,0.7c-0.2,0.3-0.6,0.4-0.9,0.6c0.2-0.4,0.2-0.7,0.1-1.1c-0.1-0.3-0.3-0.6-0.6-0.8
	C24.4,60.8,25,60.8,25.3,61z"/>
<g>
	<g>
		<path class="st7" d="M56.9,38h6.7c4,0,6.5,2.3,6.5,5.7v0c0,3.8-3.1,5.8-6.8,5.8h-3.4v5.5h-3V38z M63.4,46.9c2.3,0,3.7-1.3,3.7-3.1
			v0c0-2-1.4-3.1-3.7-3.1h-3.5v6.2H63.4z"/>
		<path class="st7" d="M72.7,42.2h3v2.9c0.8-1.9,2.3-3.3,4.6-3.2v3.1H80c-2.6,0-4.4,1.7-4.4,5.1v4.9h-3V42.2z"/>
		<path class="st7" d="M81.8,48.7L81.8,48.7c0-3.7,2.6-6.8,6.3-6.8c4.1,0,6.2,3.2,6.2,6.9c0,0.3,0,0.5,0,0.8h-9.5
			c0.3,2.1,1.8,3.3,3.7,3.3c1.4,0,2.5-0.5,3.5-1.5l1.7,1.5c-1.2,1.5-2.9,2.4-5.3,2.4C84.7,55.4,81.8,52.7,81.8,48.7z M91.4,47.7
			c-0.2-1.9-1.3-3.4-3.3-3.4c-1.8,0-3.1,1.4-3.3,3.4H91.4z"/>
		<path class="st7" d="M96,53.4l1.3-2c1.4,1.1,2.9,1.6,4.2,1.6c1.3,0,2-0.5,2-1.4v0c0-1-1.4-1.3-2.9-1.8c-1.9-0.5-4-1.3-4-3.8v0
			c0-2.4,2-3.9,4.6-3.9c1.6,0,3.4,0.6,4.7,1.5l-1.2,2.1c-1.2-0.8-2.6-1.2-3.6-1.2c-1.1,0-1.8,0.5-1.8,1.3v0c0,0.9,1.4,1.3,2.9,1.8
			c1.9,0.6,4,1.4,4,3.8v0c0,2.7-2.1,4.1-4.8,4.1C99.6,55.3,97.6,54.7,96,53.4z"/>
		<path class="st7" d="M109.1,37.4h3.2v2.8h-3.2V37.4z M109.2,42.2h3v12.9h-3V42.2z"/>
		<path class="st7" d="M115.1,48.6L115.1,48.6c0-4.3,2.9-6.7,6-6.7c2.1,0,3.5,1.1,4.4,2.3v-6.9h3v17.8h-3v-2.2
			c-1,1.3-2.3,2.4-4.4,2.4C118.1,55.3,115.1,52.9,115.1,48.6z M125.5,48.6L125.5,48.6c0-2.5-1.8-4.2-3.7-4.2c-2,0-3.7,1.6-3.7,4.1v0
			c0,2.5,1.7,4.1,3.7,4.1C123.8,52.8,125.5,51.1,125.5,48.6z"/>
		<path class="st7" d="M131.2,48.7L131.2,48.7c0-3.7,2.6-6.8,6.3-6.8c4.1,0,6.2,3.2,6.2,6.9c0,0.3,0,0.5,0,0.8h-9.5
			c0.3,2.1,1.8,3.3,3.7,3.3c1.4,0,2.5-0.5,3.5-1.5l1.7,1.5c-1.2,1.5-2.9,2.4-5.3,2.4C134.1,55.4,131.2,52.7,131.2,48.7z M140.7,47.7
			c-0.2-1.9-1.3-3.4-3.3-3.4c-1.8,0-3.1,1.4-3.3,3.4H140.7z"/>
		<path class="st7" d="M146.4,42.2h3v2c0.8-1.2,2-2.3,4-2.3c2.9,0,4.6,2,4.6,5v8.2h-3v-7.3c0-2-1-3.2-2.8-3.2
			c-1.7,0-2.9,1.2-2.9,3.2v7.3h-3V42.2z"/>
		<path class="st7" d="M160.6,48.7L160.6,48.7c0-3.7,2.8-6.8,6.7-6.8c2.4,0,4,0.9,5.2,2.2l-1.8,2c-0.9-1-1.9-1.6-3.3-1.6
			c-2.2,0-3.7,1.9-3.7,4.1v0c0,2.3,1.6,4.2,3.9,4.2c1.4,0,2.4-0.7,3.3-1.6l1.8,1.8c-1.3,1.4-2.8,2.4-5.3,2.4
			C163.4,55.4,160.6,52.4,160.6,48.7z"/>
		<path class="st7" d="M175.1,37.4h3.2v2.8h-3.2V37.4z M175.2,42.2h3v12.9h-3V42.2z"/>
		<path class="st7" d="M189.7,55.1v-1.6c-0.9,1.1-2.2,1.9-4.2,1.9c-2.4,0-4.6-1.4-4.6-4v0c0-2.9,2.2-4.2,5.2-4.2
			c1.6,0,2.6,0.2,3.6,0.5v-0.2c0-1.8-1.1-2.8-3.2-2.8c-1.4,0-2.5,0.3-3.7,0.8l-0.8-2.4c1.4-0.6,2.8-1.1,4.9-1.1c3.8,0,5.7,2,5.7,5.5
			v7.6H189.7z M189.7,49.7c-0.8-0.3-1.8-0.5-3-0.5c-1.9,0-3,0.8-3,2v0c0,1.2,1.1,1.9,2.5,1.9c2,0,3.4-1.1,3.4-2.7V49.7z"/>
		<path class="st7" d="M202.3,48.6L202.3,48.6c0-4.3,2.9-6.7,6-6.7c2.1,0,3.5,1.1,4.4,2.3v-6.9h3v17.8h-3v-2.2
			c-1,1.3-2.3,2.4-4.4,2.4C205.2,55.3,202.3,52.9,202.3,48.6z M212.7,48.6L212.7,48.6c0-2.5-1.8-4.2-3.7-4.2c-2,0-3.7,1.6-3.7,4.1v0
			c0,2.5,1.7,4.1,3.7,4.1C211,52.8,212.7,51.1,212.7,48.6z"/>
		<path class="st7" d="M218.4,48.7L218.4,48.7c0-3.7,2.6-6.8,6.3-6.8c4.1,0,6.2,3.2,6.2,6.9c0,0.3,0,0.5,0,0.8h-9.5
			c0.3,2.1,1.8,3.3,3.7,3.3c1.4,0,2.5-0.5,3.5-1.5l1.7,1.5c-1.2,1.5-2.9,2.4-5.3,2.4C221.3,55.4,218.4,52.7,218.4,48.7z M227.9,47.7
			c-0.2-1.9-1.3-3.4-3.3-3.4c-1.8,0-3.1,1.4-3.3,3.4H227.9z"/>
		<path class="st7" d="M240.9,37.2h3v17.8h-3V37.2z"/>
		<path class="st7" d="M255.3,55.1v-1.6c-0.9,1.1-2.2,1.9-4.2,1.9c-2.4,0-4.6-1.4-4.6-4v0c0-2.9,2.2-4.2,5.2-4.2
			c1.6,0,2.6,0.2,3.6,0.5v-0.2c0-1.8-1.1-2.8-3.2-2.8c-1.4,0-2.5,0.3-3.7,0.8l-0.8-2.4c1.4-0.6,2.8-1.1,4.9-1.1c3.8,0,5.7,2,5.7,5.5
			v7.6H255.3z M255.4,49.7c-0.8-0.3-1.8-0.5-3-0.5c-1.9,0-3,0.8-3,2v0c0,1.2,1.1,1.9,2.5,1.9c2,0,3.4-1.1,3.4-2.7V49.7z"/>
		<path class="st7" d="M269,38h2.8l9.2,11.8V38h3v17.1h-2.5l-9.4-12.2v12.2h-3V38z"/>
		<path class="st7" d="M295.6,55.1v-1.6c-0.9,1.1-2.2,1.9-4.2,1.9c-2.4,0-4.6-1.4-4.6-4v0c0-2.9,2.2-4.2,5.2-4.2
			c1.6,0,2.6,0.2,3.6,0.5v-0.2c0-1.8-1.1-2.8-3.2-2.8c-1.4,0-2.5,0.3-3.7,0.8l-0.8-2.4c1.4-0.6,2.8-1.1,4.9-1.1c3.8,0,5.7,2,5.7,5.5
			v7.6H295.6z M295.6,49.7c-0.8-0.3-1.8-0.5-3-0.5c-1.9,0-3,0.8-3,2v0c0,1.2,1.1,1.9,2.5,1.9c2,0,3.4-1.1,3.4-2.7V49.7z"/>
		<path class="st7" d="M301.1,48.7L301.1,48.7c0-3.7,2.8-6.8,6.7-6.8c2.4,0,4,0.9,5.2,2.2l-1.8,2c-0.9-1-1.9-1.6-3.3-1.6
			c-2.2,0-3.7,1.9-3.7,4.1v0c0,2.3,1.6,4.2,3.9,4.2c1.4,0,2.4-0.7,3.3-1.6l1.8,1.8c-1.3,1.4-2.8,2.4-5.3,2.4
			C303.9,55.4,301.1,52.4,301.1,48.7z"/>
		<path class="st7" d="M315.5,37.4h3.2v2.8h-3.2V37.4z M315.7,42.2h3v12.9h-3V42.2z"/>
		<path class="st7" d="M321.5,48.7L321.5,48.7c0-3.7,2.9-6.8,6.9-6.8c4,0,6.9,3,6.9,6.7v0c0,3.7-2.9,6.7-6.9,6.7
			C324.4,55.4,321.5,52.4,321.5,48.7z M332.3,48.7L332.3,48.7c0-2.3-1.6-4.2-4-4.2c-2.4,0-3.9,1.9-3.9,4.1v0c0,2.2,1.6,4.2,3.9,4.2
			C330.8,52.8,332.3,50.9,332.3,48.7z M329.8,36.5l2.7,1.2l-3,2.8h-2.2L329.8,36.5z"/>
		<path class="st7" d="M338,42.2h3v2c0.8-1.2,2-2.3,4-2.3c2.9,0,4.6,2,4.6,5v8.2h-3v-7.3c0-2-1-3.2-2.8-3.2c-1.7,0-2.9,1.2-2.9,3.2
			v7.3h-3V42.2z"/>
	</g>
	<g>
		<g>
			<path class="st7" d="M57.1,30l1.3-1.6c1.2,1,2.4,1.6,4,1.6c1.4,0,2.2-0.6,2.2-1.6v0c0-0.9-0.5-1.4-2.8-1.9
				c-2.7-0.6-4.2-1.4-4.2-3.7v0c0-2.1,1.8-3.6,4.3-3.6c1.8,0,3.3,0.6,4.5,1.6l-1.2,1.7C64.1,21.5,63,21,61.8,21c-1.3,0-2,0.7-2,1.5
				v0c0,1,0.6,1.4,3,2c2.7,0.6,4,1.6,4,3.7v0c0,2.3-1.8,3.7-4.5,3.7C60.4,32,58.6,31.3,57.1,30z"/>
			<path class="st7" d="M68.4,27.1L68.4,27.1c0-2.7,1.9-5,4.6-5c3,0,4.5,2.4,4.5,5.1c0,0.2,0,0.4,0,0.6h-6.9
				c0.2,1.5,1.3,2.4,2.7,2.4c1.1,0,1.8-0.4,2.6-1.1l1.3,1.1C76.3,31.3,75,32,73.3,32C70.5,32,68.4,30,68.4,27.1z M75.4,26.4
				c-0.1-1.4-1-2.5-2.4-2.5c-1.3,0-2.3,1-2.5,2.5H75.4z"/>
			<path class="st7" d="M79.1,27.1L79.1,27.1c0-2.7,2.1-5,4.9-5c1.8,0,2.9,0.7,3.8,1.6l-1.3,1.5C85.8,24.5,85.1,24,84,24
				c-1.6,0-2.7,1.4-2.7,3v0c0,1.7,1.2,3,2.8,3c1,0,1.8-0.5,2.5-1.2l1.3,1.3c-0.9,1-2,1.8-3.9,1.8C81.1,32,79.1,29.8,79.1,27.1z"/>
			<path class="st7" d="M89.6,22.3h2.2v2.1c0.6-1.4,1.7-2.4,3.3-2.3v2.3H95c-1.9,0-3.2,1.2-3.2,3.7v3.6h-2.2V22.3z"/>
			<path class="st7" d="M96,27.1L96,27.1c0-2.7,1.9-5,4.6-5c3,0,4.5,2.4,4.5,5.1c0,0.2,0,0.4,0,0.6h-6.9c0.2,1.5,1.3,2.4,2.7,2.4
				c1.1,0,1.8-0.4,2.6-1.1l1.3,1.1c-0.9,1.1-2.1,1.8-3.9,1.8C98.1,32,96,30,96,27.1z M103,26.4c-0.1-1.4-1-2.5-2.4-2.5
				c-1.3,0-2.3,1-2.5,2.5H103z"/>
			<path class="st7" d="M107.6,29.2v-5h-1.2v-1.9h1.2v-2.6h2.2v2.6h2.5v1.9h-2.5v4.6c0,0.8,0.4,1.2,1.2,1.2c0.5,0,0.9-0.1,1.3-0.3
				v1.8c-0.5,0.3-1.1,0.5-2,0.5C108.7,31.9,107.6,31.2,107.6,29.2z"/>
			<path class="st7" d="M120.1,31.8v-1.2c-0.6,0.8-1.6,1.4-3.1,1.4c-1.8,0-3.4-1-3.4-2.9v0c0-2.1,1.6-3.1,3.8-3.1
				c1.1,0,1.9,0.2,2.6,0.4v-0.2c0-1.3-0.8-2-2.3-2c-1.1,0-1.8,0.2-2.7,0.6l-0.6-1.7c1-0.5,2.1-0.8,3.6-0.8c2.8,0,4.2,1.5,4.2,4v5.6
				H120.1z M120.2,27.8c-0.6-0.2-1.3-0.4-2.2-0.4c-1.4,0-2.2,0.6-2.2,1.5v0c0,0.9,0.8,1.4,1.8,1.4c1.4,0,2.5-0.8,2.5-2V27.8z"/>
			<path class="st7" d="M124.7,22.3h2.2v2.1c0.6-1.4,1.7-2.4,3.3-2.3v2.3h-0.1c-1.9,0-3.2,1.2-3.2,3.7v3.6h-2.2V22.3z"/>
			<path class="st7" d="M132,22.3h2.2v9.5H132V22.3z M134.1,18.2l2,0.9l-2.2,2.1h-1.6L134.1,18.2z"/>
			<path class="st7" d="M142.6,31.8v-1.2c-0.6,0.8-1.6,1.4-3.1,1.4c-1.8,0-3.4-1-3.4-2.9v0c0-2.1,1.6-3.1,3.8-3.1
				c1.1,0,1.9,0.2,2.6,0.4v-0.2c0-1.3-0.8-2-2.3-2c-1.1,0-1.8,0.2-2.7,0.6L137,23c1-0.5,2.1-0.8,3.6-0.8c2.8,0,4.2,1.5,4.2,4v5.6
				H142.6z M142.7,27.8c-0.6-0.2-1.3-0.4-2.2-0.4c-1.4,0-2.2,0.6-2.2,1.5v0c0,0.9,0.8,1.4,1.8,1.4c1.4,0,2.5-0.8,2.5-2V27.8z"/>
			<path class="st7" d="M151.9,27.1L151.9,27.1c0-3.2,2.1-4.9,4.4-4.9c1.6,0,2.5,0.8,3.2,1.7v-5.1h2.2v13.1h-2.2v-1.6
				c-0.7,1-1.7,1.8-3.2,1.8C154,32,151.9,30.2,151.9,27.1z M159.5,27.1L159.5,27.1c0-1.9-1.3-3.1-2.7-3.1c-1.5,0-2.7,1.1-2.7,3v0
				c0,1.8,1.3,3,2.7,3C158.2,30.1,159.5,28.9,159.5,27.1z"/>
			<path class="st7" d="M163.6,27.1L163.6,27.1c0-2.7,1.9-5,4.6-5c3,0,4.5,2.4,4.5,5.1c0,0.2,0,0.4,0,0.6h-6.9
				c0.2,1.5,1.3,2.4,2.7,2.4c1.1,0,1.8-0.4,2.6-1.1l1.3,1.1c-0.9,1.1-2.1,1.8-3.9,1.8C165.8,32,163.6,30,163.6,27.1z M170.6,26.4
				c-0.1-1.4-1-2.5-2.4-2.5c-1.3,0-2.3,1-2.5,2.5H170.6z"/>
			<path class="st7" d="M180.2,19.3h2.3l3.8,5.9l3.8-5.9h2.3v12.5h-2.2v-9l-4,5.9h-0.1l-3.9-5.9v9h-2.2V19.3z"/>
			<path class="st7" d="M194.8,27.1L194.8,27.1c0-2.7,2.1-5,5-5c2.9,0,5,2.2,5,4.9v0c0,2.7-2.1,4.9-5.1,4.9
				C197,32,194.8,29.8,194.8,27.1z M202.8,27.1L202.8,27.1c0-1.7-1.2-3.1-2.9-3.1c-1.7,0-2.8,1.4-2.8,3v0c0,1.6,1.2,3,2.9,3
				C201.6,30.1,202.8,28.7,202.8,27.1z"/>
			<path class="st7" d="M206.5,27.1L206.5,27.1c0-3.2,2.1-4.9,4.4-4.9c1.6,0,2.5,0.8,3.2,1.7v-5.1h2.2v13.1h-2.2v-1.6
				c-0.7,1-1.7,1.8-3.2,1.8C208.6,32,206.5,30.2,206.5,27.1z M214.1,27.1L214.1,27.1c0-1.9-1.3-3.1-2.7-3.1c-1.5,0-2.7,1.1-2.7,3v0
				c0,1.8,1.3,3,2.7,3C212.8,30.1,214.1,28.9,214.1,27.1z"/>
			<path class="st7" d="M218.2,27.1L218.2,27.1c0-2.7,1.9-5,4.6-5c3,0,4.5,2.4,4.5,5.1c0,0.2,0,0.4,0,0.6h-6.9
				c0.2,1.5,1.3,2.4,2.7,2.4c1.1,0,1.8-0.4,2.6-1.1l1.3,1.1c-0.9,1.1-2.1,1.8-3.9,1.8C220.4,32,218.2,30,218.2,27.1z M225.2,26.4
				c-0.1-1.4-1-2.5-2.4-2.5c-1.3,0-2.3,1-2.5,2.5H225.2z"/>
			<path class="st7" d="M229.4,22.3h2.2v2.1c0.6-1.4,1.7-2.4,3.3-2.3v2.3h-0.1c-1.9,0-3.2,1.2-3.2,3.7v3.6h-2.2V22.3z"/>
			<path class="st7" d="M236.6,22.3h2.2v1.5c0.6-0.9,1.5-1.7,3-1.7c2.1,0,3.4,1.4,3.4,3.6v6h-2.2v-5.4c0-1.5-0.7-2.3-2-2.3
				c-1.3,0-2.1,0.9-2.1,2.3v5.3h-2.2V22.3z"/>
			<path class="st7" d="M247.6,18.8h2.3v2.1h-2.3V18.8z M247.7,22.3h2.2v9.5h-2.2V22.3z"/>
			<path class="st7" d="M252.1,30.3l5.5-6.2h-5.3v-1.8h8v1.5l-5.5,6.2h5.5v1.8h-8.2V30.3z"/>
			<path class="st7" d="M268.1,31.8v-1.2c-0.6,0.8-1.6,1.4-3.1,1.4c-1.8,0-3.4-1-3.4-2.9v0c0-2.1,1.6-3.1,3.8-3.1
				c1.1,0,1.9,0.2,2.6,0.4v-0.2c0-1.3-0.8-2-2.3-2c-1.1,0-1.8,0.2-2.7,0.6l-0.6-1.7c1-0.5,2.1-0.8,3.6-0.8c2.8,0,4.2,1.5,4.2,4v5.6
				H268.1z M268.2,27.8c-0.6-0.2-1.3-0.4-2.2-0.4c-1.4,0-2.2,0.6-2.2,1.5v0c0,0.9,0.8,1.4,1.8,1.4c1.4,0,2.5-0.8,2.5-2V27.8z"/>
			<path class="st7" d="M272.1,27.1L272.1,27.1c0-2.7,2.1-5,4.9-5c1.8,0,2.9,0.7,3.8,1.6l-1.3,1.5c-0.7-0.7-1.4-1.2-2.5-1.2
				c-1.6,0-2.7,1.4-2.7,3v0c0,1.7,1.2,3,2.8,3c1,0,1.8-0.5,2.5-1.2l1.3,1.3c-0.9,1-2,1.8-3.9,1.8C274.2,32,272.1,29.8,272.1,27.1z"
				/>
			<path class="st7" d="M282.7,18.8h2.3v2.1h-2.3V18.8z M282.8,22.3h2.2v9.5h-2.2V22.3z"/>
			<path class="st7" d="M287.1,27.1L287.1,27.1c0-2.7,2.1-5,5-5c2.9,0,5,2.2,5,4.9v0c0,2.7-2.1,4.9-5.1,4.9
				C289.3,32,287.1,29.8,287.1,27.1z M295,27.1L295,27.1c0-1.7-1.2-3.1-2.9-3.1c-1.7,0-2.8,1.4-2.8,3v0c0,1.6,1.2,3,2.9,3
				C293.9,30.1,295,28.7,295,27.1z M293.2,18.2l2,0.9l-2.2,2.1h-1.6L293.2,18.2z"/>
			<path class="st7" d="M299.2,22.3h2.2v1.5c0.6-0.9,1.5-1.7,3-1.7c2.1,0,3.4,1.4,3.4,3.6v6h-2.2v-5.4c0-1.5-0.7-2.3-2-2.3
				c-1.3,0-2.1,0.9-2.1,2.3v5.3h-2.2V22.3z"/>
		</g>
	</g>
</g>
</svg>
