<?xml version="1.0" encoding="UTF-8" standalone="no"?>
<svg
   xmlns:dc="http://purl.org/dc/elements/1.1/"
   xmlns:cc="http://creativecommons.org/ns#"
   xmlns:rdf="http://www.w3.org/1999/02/22-rdf-syntax-ns#"
   xmlns:svg="http://www.w3.org/2000/svg"
   xmlns="http://www.w3.org/2000/svg"
   xmlns:sodipodi="http://sodipodi.sourceforge.net/DTD/sodipodi-0.dtd"
   xmlns:inkscape="http://www.inkscape.org/namespaces/inkscape"
   id="Layer_1"
   data-name="Layer 1"
   viewBox="0 0 200.00001 50"
   version="1.1"
   sodipodi:docname="logo-datosgobar.svg"
   width="200"
   height="50"
   inkscape:version="0.92.5 (2060ec1f9f, 2020-04-08)">
  <metadata
     id="metadata33">
    <rdf:RDF>
      <cc:Work
         rdf:about="">
        <dc:format>image/svg+xml</dc:format>
        <dc:type
           rdf:resource="http://purl.org/dc/dcmitype/StillImage" />
        <dc:title></dc:title>
      </cc:Work>
    </rdf:RDF>
  </metadata>
  <sodipodi:namedview
     pagecolor="#ffffff"
     bordercolor="#666666"
     borderopacity="1"
     objecttolerance="10"
     gridtolerance="10"
     guidetolerance="10"
     inkscape:pageopacity="0"
     inkscape:pageshadow="2"
     inkscape:window-width="1547"
     inkscape:window-height="719"
     id="namedview31"
     showgrid="false"
     inkscape:zoom="5.0791075"
     inkscape:cx="57.473813"
     inkscape:cy="35.411596"
     inkscape:window-x="0"
     inkscape:window-y="27"
     inkscape:window-maximized="0"
     inkscape:current-layer="Layer_1" />
  <defs
     id="defs4">
    <style
       id="style2">.cls-1{fill:#292a30;}</style>
  </defs>
  <g
     id="g5106"
     transform="matrix(2.7386477,0,0,2.7386477,-0.99429377,-12.932062)">
    <path
       style="fill:#292a30"
       inkscape:connector-curvature="0"
       id="path6"
       d="M 2,17.411 A 2.577,2.577 0 0 1 0.965,16.27 4.333,4.333 0 0 1 0.58,14.328 3.682,3.682 0 0 1 1.568,11.565 3.969,3.969 0 0 1 4.451,10.6 c 0.19,0 0.419,0.012 0.689,0.038 v -3.2 H 7.515 V 17.651 H 5.525 L 5.38,16.931 H 5.28 A 2.11,2.11 0 0 1 4.516,17.553 2.391,2.391 0 0 1 3.461,17.777 2.924,2.924 0 0 1 2,17.411 Z M 4.706,15.765 A 1.176,1.176 0 0 0 5.139,15.516 V 12.452 A 3.57,3.57 0 0 0 4.457,12.389 1.439,1.439 0 0 0 3.326,12.8 2.012,2.012 0 0 0 2.96,14.151 a 2.114,2.114 0 0 0 0.313,1.318 1.1,1.1 0 0 0 0.906,0.382 1.649,1.649 0 0 0 0.528,-0.086 z"
       class="cls-1" />
    <path
       style="fill:#292a30"
       inkscape:connector-curvature="0"
       id="path8"
       d="m 13.086,10.9 a 2.022,2.022 0 0 1 1.08,0.963 4,4 0 0 1 0.347,1.819 v 3.967 H 12.568 L 12.403,16.992 H 12.3 a 1.746,1.746 0 0 1 -0.745,0.6 2.627,2.627 0 0 1 -1.03,0.192 2.746,2.746 0 0 1 -1.235,-0.259 1.838,1.838 0 0 1 -0.792,-0.72 2.063,2.063 0 0 1 -0.272,-1.067 1.882,1.882 0 0 1 0.723,-1.582 4.172,4.172 0 0 1 2.284,-0.654 l 0.972,-0.063 a 1.192,1.192 0 0 0 -0.161,-0.619 0.826,0.826 0 0 0 -0.467,-0.328 2.982,2.982 0 0 0 -0.875,-0.1 6.813,6.813 0 0 0 -0.931,0.07 6.4,6.4 0 0 0 -0.951,0.2 V 10.9 a 8.267,8.267 0 0 1 1.14,-0.215 9.927,9.927 0 0 1 1.184,-0.076 5.326,5.326 0 0 1 1.942,0.291 z m -1.3,5.189 a 1.256,1.256 0 0 0 0.416,-0.221 v -1.142 l -0.72,0.051 a 1.215,1.215 0 0 0 -0.7,0.218 0.634,0.634 0 0 0 -0.224,0.514 0.6,0.6 0 0 0 0.2,0.484 0.868,0.868 0 0 0 0.571,0.167 1.587,1.587 0 0 0 0.456,-0.069 z"
       class="cls-1" />
    <path
       style="fill:#292a30"
       inkscape:connector-curvature="0"
       id="path10"
       d="m 20.185,15.768 v 1.857 a 5.485,5.485 0 0 1 -0.654,0.114 5.819,5.819 0 0 1 -0.7,0.044 2.827,2.827 0 0 1 -2.037,-0.666 2.73,2.73 0 0 1 -0.692,-2.05 V 12.573 H 15.031 V 10.722 H 16.1 l 0.436,-2.419 h 1.939 v 2.419 h 1.693 v 1.851 H 18.473 V 14.7 a 1.857,1.857 0 0 0 0.1,0.682 0.646,0.646 0 0 0 0.319,0.351 1.438,1.438 0 0 0 0.6,0.1 4.459,4.459 0 0 0 0.693,-0.065 z"
       class="cls-1" />
    <path
       style="fill:#292a30"
       inkscape:connector-curvature="0"
       id="path12"
       d="m 22.165,17.379 a 2.76,2.76 0 0 1 -1.216,-1.207 4.166,4.166 0 0 1 -0.423,-1.964 3.634,3.634 0 0 1 0.916,-2.687 3.533,3.533 0 0 1 2.608,-0.913 4.114,4.114 0 0 1 1.908,0.408 2.738,2.738 0 0 1 1.2,1.212 4.267,4.267 0 0 1 0.414,1.968 4.18,4.18 0 0 1 -0.423,1.97 2.8,2.8 0 0 1 -1.216,1.21 4.586,4.586 0 0 1 -3.771,0 z m 2.52,-1.535 a 1.013,1.013 0 0 0 0.379,-0.559 3.588,3.588 0 0 0 0.129,-1.077 3.681,3.681 0 0 0 -0.129,-1.089 1.019,1.019 0 0 0 -0.379,-0.565 1.3,1.3 0 0 0 -1.269,0 1.009,1.009 0 0 0 -0.379,0.562 4.576,4.576 0 0 0 0,2.166 1.013,1.013 0 0 0 0.379,0.562 1.309,1.309 0 0 0 1.269,0 z"
       class="cls-1" />
    <path
       style="fill:#292a30"
       inkscape:connector-curvature="0"
       id="path14"
       d="m 28.263,17.474 v -1.712 a 7.376,7.376 0 0 0 1.093,0.238 8.515,8.515 0 0 0 1.187,0.082 1.916,1.916 0 0 0 0.834,-0.13 0.41,0.41 0 0 0 0.246,-0.382 0.356,0.356 0 0 0 -0.1,-0.278 0.734,0.734 0 0 0 -0.363,-0.139 l -1.187,-0.208 a 2.517,2.517 0 0 1 -1.447,-0.676 1.932,1.932 0 0 1 -0.461,-1.364 1.988,1.988 0 0 1 0.379,-1.219 2.413,2.413 0 0 1 1.153,-0.793 5.668,5.668 0 0 1 1.917,-0.281 8.748,8.748 0 0 1 1.026,0.06 6.093,6.093 0 0 1 0.9,0.168 v 1.711 a 6.828,6.828 0 0 0 -0.881,-0.17 7.534,7.534 0 0 0 -0.976,-0.063 2.526,2.526 0 0 0 -1.032,0.145 0.438,0.438 0 0 0 -0.288,0.391 0.312,0.312 0 0 0 0.107,0.25 0.816,0.816 0 0 0 0.367,0.142 l 1.187,0.208 a 2.626,2.626 0 0 1 1.428,0.645 1.882,1.882 0 0 1 0.473,1.389 2,2 0 0 1 -0.382,1.229 2.4,2.4 0 0 1 -1.108,0.792 4.874,4.874 0 0 1 -1.744,0.278 7.919,7.919 0 0 1 -2.328,-0.313 z"
       class="cls-1" />
    <path
       style="fill:#292a30"
       inkscape:connector-curvature="0"
       id="path16"
       d="m 34.936,17.468 a 0.976,0.976 0 0 1 -0.3,-0.752 0.991,0.991 0 0 1 0.3,-0.755 1.28,1.28 0 0 1 1.6,0 0.993,0.993 0 0 1 0.3,0.752 0.976,0.976 0 0 1 -0.3,0.748 1.118,1.118 0 0 1 -0.8,0.281 1.131,1.131 0 0 1 -0.8,-0.274 z"
       class="cls-1" />
    <path
       style="fill:#292a30"
       inkscape:connector-curvature="0"
       id="path18"
       d="m 39.01,20.483 a 7.2,7.2 0 0 1 -1.083,-0.217 v -1.314 a 7.642,7.642 0 0 0 2.09,0.316 3.091,3.091 0 0 0 1.15,-0.18 1.244,1.244 0 0 0 0.653,-0.579 2.219,2.219 0 0 0 0.212,-1.048 V 16.918 H 41.95 a 2.233,2.233 0 0 1 -0.786,0.581 2.526,2.526 0 0 1 -1.045,0.208 2.567,2.567 0 0 1 -1.339,-0.356 2.5,2.5 0 0 1 -0.961,-1.112 4.388,4.388 0 0 1 -0.36,-1.892 3.7,3.7 0 0 1 0.948,-2.753 3.868,3.868 0 0 1 2.817,-0.941 9.091,9.091 0 0 1 1.282,0.094 7.066,7.066 0 0 1 1.181,0.265 v 6.152 a 4.213,4.213 0 0 1 -0.388,1.942 2.382,2.382 0 0 1 -1.172,1.1 4.9,4.9 0 0 1 -1.99,0.35 8.926,8.926 0 0 1 -1.127,-0.073 z m 2.432,-4.272 a 1.5,1.5 0 0 0 0.59,-0.417 v -3.758 a 4.307,4.307 0 0 0 -0.947,-0.108 1.878,1.878 0 0 0 -1.469,0.544 2.539,2.539 0 0 0 -0.489,1.73 2.6,2.6 0 0 0 0.41,1.664 1.455,1.455 0 0 0 1.175,0.483 1.976,1.976 0 0 0 0.73,-0.138 z"
       class="cls-1" />
    <path
       style="fill:#292a30"
       inkscape:connector-curvature="0"
       id="path20"
       d="m 45.623,16.886 a 3.728,3.728 0 0 1 -0.85,-2.665 3.784,3.784 0 0 1 0.837,-2.678 3.606,3.606 0 0 1 4.744,0 3.776,3.776 0 0 1 0.837,2.672 4.506,4.506 0 0 1 -0.391,1.985 2.61,2.61 0 0 1 -1.108,1.187 3.534,3.534 0 0 1 -1.712,0.392 3.1,3.1 0 0 1 -2.357,-0.893 z m 3.512,-0.9 a 3,3 0 0 0 0.388,-1.756 3.067,3.067 0 0 0 -0.388,-1.778 1.539,1.539 0 0 0 -2.306,0 3.008,3.008 0 0 0 -0.388,1.756 4.161,4.161 0 0 0 0.18,1.358 1.361,1.361 0 0 0 0.518,0.723 1.527,1.527 0 0 0 0.843,0.218 1.348,1.348 0 0 0 1.153,-0.524 z"
       class="cls-1" />
    <path
       style="fill:#292a30"
       inkscape:connector-curvature="0"
       id="path22"
       d="M 53.411,17.685 A 6.985,6.985 0 0 1 52.227,17.417 V 7.444 h 1.654 v 4 h 0.083 a 2.164,2.164 0 0 1 0.783,-0.581 2.543,2.543 0 0 1 1.048,-0.208 2.6,2.6 0 0 1 1.352,0.356 2.45,2.45 0 0 1 0.954,1.125 4.641,4.641 0 0 1 0.353,1.935 3.745,3.745 0 0 1 -0.941,2.776 3.848,3.848 0 0 1 -2.817,0.932 9.083,9.083 0 0 1 -1.285,-0.094 z M 56.3,15.958 a 2.61,2.61 0 0 0 0.483,-1.756 2.66,2.66 0 0 0 -0.411,-1.689 1.445,1.445 0 0 0 -1.175,-0.49 1.976,1.976 0 0 0 -0.729,0.139 1.5,1.5 0 0 0 -0.591,0.417 v 3.8 a 3.591,3.591 0 0 0 0.954,0.12 1.866,1.866 0 0 0 1.469,-0.541 z"
       class="cls-1" />
    <path
       style="fill:#292a30"
       inkscape:connector-curvature="0"
       id="path24"
       d="m 59.38,17.468 a 0.976,0.976 0 0 1 -0.3,-0.752 0.99,0.99 0 0 1 0.3,-0.755 1.281,1.281 0 0 1 1.605,0 0.993,0.993 0 0 1 0.3,0.752 0.976,0.976 0 0 1 -0.3,0.748 1.284,1.284 0 0 1 -1.6,0 z"
       class="cls-1" />
    <path
       style="fill:#292a30"
       inkscape:connector-curvature="0"
       id="path26"
       d="m 66.463,10.915 a 1.837,1.837 0 0 1 0.97,0.862 3.5,3.5 0 0 1 0.318,1.629 v 4.245 h -1.37 l -0.114,-0.714 h -0.088 a 1.953,1.953 0 0 1 -0.8,0.622 2.709,2.709 0 0 1 -1.084,0.212 2.641,2.641 0 0 1 -1.168,-0.24 1.746,1.746 0 0 1 -0.755,-0.679 1.985,1.985 0 0 1 -0.262,-1.033 1.792,1.792 0 0 1 0.657,-1.485 3.843,3.843 0 0 1 2.078,-0.637 l 1.288,-0.12 V 13.305 A 1.7,1.7 0 0 0 65.966,12.481 0.925,0.925 0 0 0 65.442,12.055 2.923,2.923 0 0 0 64.485,11.928 6.378,6.378 0 0 0 63.57,12 6.018,6.018 0 0 0 62.623,12.218 v -1.27 a 6.3,6.3 0 0 1 1.045,-0.221 8.533,8.533 0 0 1 1.1,-0.075 4.61,4.61 0 0 1 1.695,0.263 z m -0.944,5.542 a 1.662,1.662 0 0 0 0.615,-0.442 v -1.466 l -1.13,0.1 a 1.762,1.762 0 0 0 -0.951,0.313 0.857,0.857 0 0 0 -0.3,0.7 0.884,0.884 0 0 0 0.269,0.7 1.144,1.144 0 0 0 0.786,0.24 1.88,1.88 0 0 0 0.711,-0.145 z"
       class="cls-1" />
    <path
       style="fill:#292a30"
       inkscape:connector-curvature="0"
       id="path28"
       d="m 69.1,10.76 h 1.364 l 0.127,0.9 h 0.088 a 1.961,1.961 0 0 1 0.8,-0.733 2.42,2.42 0 0 1 1.09,-0.246 3.542,3.542 0 0 1 0.549,0.044 v 1.5 a 3.834,3.834 0 0 0 -0.644,-0.044 2.455,2.455 0 0 0 -0.969,0.2 1.748,1.748 0 0 0 -0.749,0.575 v 4.693 H 69.1 Z"
       class="cls-1" />
  </g>
</svg>
